<svg width="16" height="8" viewBox="0 0 16 8" fill="none" xmlns="http://www.w3.org/2000/svg">
<path d="M7.87277 7.60715C7.62011 7.60764 7.37524 7.51965 7.18069 7.35843L0.692409 1.95153C0.471573 1.76798 0.332697 1.50422 0.306334 1.21827C0.27997 0.932326 0.368278 0.647619 0.551829 0.426783C0.735381 0.205948 0.999142 0.0670725 1.28509 0.0407087C1.57103 0.0143449 1.85574 0.102652 2.07658 0.286204L7.87277 5.13079L13.669 0.459226C13.7796 0.3694 13.9069 0.30232 14.0435 0.261842C14.1801 0.221364 14.3234 0.208286 14.4651 0.223359C14.6068 0.238433 14.7441 0.28136 14.8691 0.349675C14.9942 0.41799 15.1045 0.510346 15.1937 0.621432C15.2928 0.732621 15.3678 0.863064 15.414 1.00459C15.4603 1.14611 15.4769 1.29567 15.4626 1.44389C15.4484 1.5921 15.4038 1.73579 15.3314 1.86594C15.2591 1.99609 15.1607 2.1099 15.0423 2.20025L8.55404 7.42331C8.3539 7.55904 8.11403 7.62377 7.87277 7.60715V7.60715Z" fill="#F73E42"/>
</svg>
