<svg width="14" height="5" viewBox="0 0 14 5" fill="none" xmlns="http://www.w3.org/2000/svg">
<path d="M12.8423 0.690414H1.00851C0.925901 0.690414 0.846672 0.721287 0.788256 0.77624C0.729839 0.831192 0.697021 0.905724 0.697021 0.98344V3.71912C0.697021 3.88098 0.836608 4.01214 1.00851 4.01214H12.8422C12.9247 4.0121 13.0039 3.98121 13.0623 3.92627C13.1207 3.87132 13.1535 3.79681 13.1535 3.71912V0.98344C13.1535 0.944978 13.1455 0.90689 13.1299 0.871348C13.1142 0.835807 13.0913 0.80351 13.0624 0.7763C13.0335 0.74909 12.9992 0.7275 12.9614 0.712764C12.9237 0.698028 12.8832 0.690433 12.8423 0.690414Z" fill="#F73E42"/>
</svg>
