<svg width="12" height="12" viewBox="0 0 12 12" fill="none" xmlns="http://www.w3.org/2000/svg">
<path d="M11.3572 4.69457H7.36076V0.698122C7.36076 0.601765 7.32248 0.509355 7.25435 0.441221C7.18621 0.373086 7.0938 0.334808 6.99745 0.334808H4.81756C4.72121 0.334808 4.6288 0.373086 4.56066 0.441221C4.49253 0.509355 4.45425 0.601765 4.45425 0.698122V4.69457H0.457796C0.361439 4.69457 0.269029 4.73285 0.200895 4.80099C0.13276 4.86912 0.0944824 4.96153 0.0944824 5.05789L0.0944824 7.23777C0.0944824 7.33413 0.13276 7.42654 0.200895 7.49467C0.269029 7.56281 0.361439 7.60109 0.457796 7.60109H4.45425V11.5975C4.45425 11.6939 4.49253 11.7863 4.56066 11.8544C4.6288 11.9226 4.72121 11.9609 4.81756 11.9609H6.99745C7.0938 11.9609 7.18621 11.9226 7.25435 11.8544C7.32248 11.7863 7.36076 11.6939 7.36076 11.5975V7.60109H11.3572C11.4536 7.60109 11.546 7.56281 11.6141 7.49467C11.6822 7.42654 11.7205 7.33413 11.7205 7.23777V5.05789C11.7205 4.96153 11.6822 4.86912 11.6141 4.80099C11.546 4.73285 11.4536 4.69457 11.3572 4.69457Z" fill="#2ECC71"/>
</svg>
