<svg width="7" height="11" viewBox="0 0 7 11" fill="none" xmlns="http://www.w3.org/2000/svg">
<path d="M1.47437 10.8101C1.28133 10.8104 1.09425 10.7513 0.945611 10.6431C0.861952 10.5821 0.792798 10.5073 0.74211 10.4228C0.691422 10.3383 0.660195 10.2459 0.650218 10.1508C0.640241 10.0557 0.65171 9.95978 0.683968 9.86858C0.716226 9.77738 0.768639 9.69266 0.838206 9.61929L4.53953 5.72743L0.970397 1.8283C0.901769 1.75403 0.850519 1.66857 0.819593 1.57684C0.788667 1.4851 0.778675 1.3889 0.790192 1.29376C0.801708 1.19862 0.834505 1.10642 0.886699 1.02246C0.938892 0.938494 1.00945 0.864424 1.09432 0.804505C1.17981 0.738404 1.27991 0.688545 1.38836 0.658057C1.49681 0.627569 1.61126 0.61711 1.72452 0.627337C1.83779 0.637564 1.94742 0.668256 2.04655 0.717487C2.14568 0.766717 2.23216 0.833423 2.30056 0.913419L6.29106 5.26999C6.41257 5.39991 6.479 5.56288 6.479 5.73106C6.479 5.89924 6.41257 6.0622 6.29106 6.19213L2.16011 10.5487C2.07723 10.6366 1.97194 10.706 1.8528 10.7514C1.73365 10.7969 1.60401 10.817 1.47437 10.8101Z" fill="#F73E42"/>
</svg>
