<svg width="24" height="23" viewBox="0 0 24 23" fill="none" xmlns="http://www.w3.org/2000/svg">
<path fill-rule="evenodd" clip-rule="evenodd" d="M0.324158 1.89828C0.324158 1.39485 0.524145 0.91204 0.880124 0.55606C1.2361 0.200081 1.71892 9.40833e-05 2.22235 9.40833e-05H21.1443C21.3938 -0.000313389 21.6409 0.0484916 21.8715 0.143715C22.1021 0.238938 22.3117 0.378709 22.4882 0.555026C22.6647 0.731343 22.8047 0.940744 22.9002 1.17124C22.9956 1.40173 23.0447 1.6488 23.0446 1.89828V20.8203C23.0449 21.0698 22.9959 21.3169 22.9006 21.5475C22.8052 21.7781 22.6654 21.9877 22.489 22.1642C22.3126 22.3407 22.1031 22.4807 21.8726 22.5761C21.642 22.6716 21.3949 22.7207 21.1454 22.7205H2.22235C1.97299 22.7205 1.72607 22.6714 1.4957 22.5759C1.26534 22.4805 1.05604 22.3406 0.879759 22.1642C0.703483 21.9878 0.563685 21.7784 0.468352 21.548C0.37302 21.3176 0.324022 21.0707 0.324158 20.8213V1.89828ZM9.31732 8.66277H12.3939V10.2078C12.8379 9.3196 13.974 8.52025 15.6811 8.52025C18.9539 8.52025 19.7295 10.2893 19.7295 13.5353V19.5479H16.4174V14.2747C16.4174 12.4261 15.9734 11.383 14.8456 11.383C13.281 11.383 12.6304 12.5077 12.6304 14.2747V19.5479H9.31732V8.66277ZM3.63721 19.4064H6.95026V8.52025H3.63721V19.4054V19.4064ZM7.42429 4.96967C7.43054 5.25334 7.38006 5.5354 7.27582 5.79929C7.17158 6.06319 7.01569 6.3036 6.81728 6.50643C6.61886 6.70926 6.38194 6.87041 6.1204 6.98043C5.85887 7.09046 5.57799 7.14713 5.29425 7.14713C5.01051 7.14713 4.72964 7.09046 4.4681 6.98043C4.20656 6.87041 3.96964 6.70926 3.77123 6.50643C3.57282 6.3036 3.41692 6.06319 3.31268 5.79929C3.20844 5.5354 3.15796 5.25334 3.16421 4.96967C3.17647 4.41287 3.40627 3.88301 3.8044 3.49355C4.20252 3.1041 4.73732 2.88602 5.29425 2.88602C5.85119 2.88602 6.38598 3.1041 6.78411 3.49355C7.18223 3.88301 7.41203 4.41287 7.42429 4.96967Z" fill="#F73E42"/>
</svg>
