<svg width="107" height="89" viewBox="0 0 107 89" fill="none" xmlns="http://www.w3.org/2000/svg">
<g filter="url(#filter0_d)">
<path d="M71.6648 37.7656H33.2954C30.7084 37.7656 28.5918 35.649 28.5918 33.0621V21.9303C28.5918 19.3433 30.7084 17.2267 33.2954 17.2267H71.6648C74.2518 17.2267 76.3684 19.3433 76.3684 21.9303V33.0621C76.3684 35.649 74.2518 37.7656 71.6648 37.7656Z" stroke="white" stroke-width="1.6484" stroke-miterlimit="10" stroke-linecap="round" stroke-linejoin="round"/>
<path d="M44.4805 17.2267V37.7656" stroke="white" stroke-width="1.49854" stroke-miterlimit="10" stroke-linecap="round" stroke-linejoin="round"/>
<path d="M60.4756 17.2267V37.7656" stroke="white" stroke-width="1.49854" stroke-miterlimit="10" stroke-linecap="round" stroke-linejoin="round"/>
<path d="M42.0156 23.8234C41.8588 24.1997 41.6746 24.5759 41.463 24.9562C41.361 25.1365 41.2591 25.3128 41.1494 25.4931C41.0436 25.6734 40.9338 25.8538 40.8241 26.0341C40.7457 26.1556 40.6673 26.281 40.5889 26.4025C40.5105 26.524 40.4321 26.6494 40.3537 26.771C40.1734 27.0532 40.0009 27.3236 39.8285 27.5941C39.5267 28.0644 39.264 28.5583 39.0249 29.06L37.2258 32.8229C36.9671 32.8229 36.7163 32.8229 36.4693 32.8229C36.3361 32.8229 36.2067 32.8229 36.0852 32.8229C35.9598 32.8229 35.8383 32.8229 35.7128 32.8229C35.3326 32.8229 34.9524 32.8229 34.5683 32.8229C34.1881 32.8229 33.8079 32.8229 33.4238 32.8229C33.412 32.8229 33.4002 32.8229 33.3806 32.8229C33.365 32.8229 33.3493 32.8229 33.3415 32.8229C33.1964 32.8229 33.0592 32.7994 32.9377 32.7562C32.8162 32.7092 32.7535 32.6112 32.7535 32.4544C32.7535 32.4427 32.7535 32.4309 32.7535 32.4192C32.7535 32.4074 32.7535 32.3956 32.7535 32.3878C32.7653 32.3643 32.7731 32.3408 32.777 32.3212C32.7809 32.2977 32.7849 32.2781 32.7849 32.2545C33.1768 30.8082 33.6668 29.7303 34.2469 29.0169C35.3993 27.6098 36.971 26.72 38.3076 25.5127C38.5507 25.2932 38.7937 25.0737 39.0171 24.8386C39.0367 24.819 39.3072 24.5172 39.217 24.525C38.9191 24.5524 32.585 24.7367 32.585 24.7367C32.585 24.7367 33.1063 22.9297 33.2082 22.7141C33.2631 22.6122 33.3297 22.5417 33.4042 22.4946C33.4786 22.4515 33.5531 22.428 33.6315 22.428C33.6433 22.428 33.6511 22.428 33.655 22.428C33.6589 22.428 33.6668 22.428 33.6785 22.428C34.0196 22.4633 34.388 22.428 34.729 22.428C35.5051 22.4241 36.2812 22.4201 37.0612 22.4123C37.8804 22.4045 38.6996 22.3966 39.5188 22.3809C39.9186 22.3731 40.3184 22.3809 40.7182 22.3653C41.0867 22.3535 42.29 22.3378 42.29 22.3378C42.29 22.3378 42.29 22.4633 42.29 22.7102C42.29 22.722 42.29 22.7298 42.29 22.7337C42.29 22.7416 42.29 22.7494 42.29 22.7612C42.2586 23.0943 42.1724 23.4471 42.0156 23.8234Z" stroke="white" stroke-width="1.17589" stroke-miterlimit="10" stroke-linecap="round" stroke-linejoin="round"/>
<path d="M57.1406 23.8234C56.9838 24.1997 56.7996 24.5759 56.588 24.9562C56.486 25.1365 56.3841 25.3128 56.2744 25.4931C56.1686 25.6734 56.0588 25.8538 55.9491 26.0341C55.8707 26.1556 55.7923 26.281 55.7139 26.4025C55.6355 26.524 55.5571 26.6494 55.4787 26.771C55.2984 27.0532 55.1259 27.3236 54.9535 27.5941C54.6517 28.0644 54.389 28.5583 54.1499 29.06L52.3508 32.8229C52.0921 32.8229 51.8413 32.8229 51.5943 32.8229C51.4611 32.8229 51.3317 32.8229 51.2102 32.8229C51.0848 32.8229 50.9633 32.8229 50.8378 32.8229C50.4576 32.8229 50.0774 32.8229 49.6933 32.8229C49.3131 32.8229 48.9329 32.8229 48.5488 32.8229C48.537 32.8229 48.5252 32.8229 48.5057 32.8229C48.49 32.8229 48.4743 32.8229 48.4665 32.8229C48.3214 32.8229 48.1842 32.7994 48.0627 32.7562C47.9412 32.7092 47.8785 32.6112 47.8785 32.4544C47.8785 32.4427 47.8785 32.4309 47.8785 32.4192C47.8785 32.4074 47.8785 32.3956 47.8785 32.3878C47.8903 32.3643 47.8981 32.3408 47.902 32.3212C47.9059 32.2977 47.9099 32.2781 47.9099 32.2545C48.3018 30.8082 48.7918 29.7303 49.3719 29.0169C50.5243 27.6098 52.096 26.72 53.4326 25.5127C53.6757 25.2932 53.9187 25.0737 54.1421 24.8386C54.1617 24.819 54.4322 24.5172 54.342 24.525C54.0441 24.5524 47.71 24.7367 47.71 24.7367C47.71 24.7367 48.2313 22.9297 48.3332 22.7141C48.3881 22.6122 48.4547 22.5417 48.5292 22.4946C48.5997 22.4515 48.6781 22.428 48.7565 22.428C48.7683 22.428 48.7761 22.428 48.78 22.428C48.7839 22.428 48.7918 22.428 48.8035 22.428C49.1446 22.4633 49.513 22.428 49.854 22.428C50.6301 22.4241 51.4062 22.4201 52.1862 22.4123C53.0054 22.4045 53.8246 22.3966 54.6438 22.3809C55.0436 22.3731 55.4434 22.3809 55.8432 22.3653C56.2117 22.3535 57.415 22.3378 57.415 22.3378C57.415 22.3378 57.415 22.4633 57.415 22.7102C57.415 22.722 57.415 22.7298 57.415 22.7337C57.415 22.7416 57.415 22.7494 57.415 22.7612C57.3876 23.0943 57.2974 23.4471 57.1406 23.8234Z" stroke="white" stroke-width="1.17589" stroke-miterlimit="10" stroke-linecap="round" stroke-linejoin="round"/>
<path d="M73.5371 23.8234C73.3803 24.1997 73.1961 24.5759 72.9844 24.9562C72.8825 25.1365 72.7806 25.3128 72.6709 25.4931C72.565 25.6734 72.4553 25.8538 72.3455 26.0341C72.2671 26.1556 72.1888 26.281 72.1104 26.4025C72.032 26.524 71.9536 26.6494 71.8752 26.771C71.6949 27.0532 71.5224 27.3236 71.3499 27.5941C71.0481 28.0644 70.7855 28.5583 70.5464 29.06L68.7473 32.8229C68.4886 32.8229 68.2378 32.8229 67.9908 32.8229C67.8575 32.8229 67.7282 32.8229 67.6067 32.8229C67.4813 32.8229 67.3597 32.8229 67.2343 32.8229C66.8541 32.8229 66.4739 32.8229 66.0898 32.8229C65.7096 32.8229 65.3294 32.8229 64.9452 32.8229C64.9335 32.8229 64.9217 32.8229 64.9021 32.8229C64.8865 32.8229 64.8708 32.8229 64.8629 32.8229C64.7179 32.8229 64.5807 32.7994 64.4592 32.7562C64.3377 32.7092 64.275 32.6112 64.275 32.4544C64.275 32.4427 64.275 32.4309 64.275 32.4192C64.275 32.4074 64.275 32.3956 64.275 32.3878C64.2867 32.3643 64.2946 32.3408 64.2985 32.3212C64.3024 32.2977 64.3063 32.2781 64.3063 32.2545C64.6983 30.8082 65.1883 29.7303 65.7684 29.0169C66.9208 27.6098 68.4925 26.72 69.8291 25.5127C70.0721 25.2932 70.3152 25.0737 70.5386 24.8386C70.5582 24.819 70.8286 24.5172 70.7385 24.525C70.4406 24.5524 64.1064 24.7367 64.1064 24.7367C64.1064 24.7367 64.6278 22.9297 64.7297 22.7141C64.7845 22.6122 64.8512 22.5417 64.9256 22.4946C65.0001 22.4515 65.0746 22.428 65.153 22.428C65.1647 22.428 65.1726 22.428 65.1765 22.428C65.1804 22.428 65.1883 22.428 65.2 22.428C65.541 22.4633 65.9095 22.428 66.2505 22.428C67.0266 22.4241 67.8027 22.4201 68.5827 22.4123C69.4019 22.4045 70.2211 22.3966 71.0403 22.3809C71.4401 22.3731 71.8399 22.3809 72.2397 22.3653C72.6082 22.3535 73.8115 22.3378 73.8115 22.3378C73.8115 22.3378 73.8115 22.4633 73.8115 22.7102C73.8115 22.722 73.8115 22.7298 73.8115 22.7337C73.8115 22.7416 73.8115 22.7494 73.8115 22.7612C73.7841 23.0943 73.6939 23.4471 73.5371 23.8234Z" stroke="white" stroke-width="1.17589" stroke-miterlimit="10" stroke-linecap="round" stroke-linejoin="round"/>
<g clip-path="url(#clip0)">
<path d="M12.9482 2.05548V53.3228H92.3687V2.05548H12.9482ZM87.709 48.6666H17.6079V6.71166H87.709V48.6666Z" stroke="white" stroke-width="2.18084" stroke-miterlimit="10" stroke-linecap="round" stroke-linejoin="round"/>
<path d="M12.9477 53.3229L5.32422 76.1184V80.8239H102.083V76.1184L92.3681 53.3229" stroke="white" stroke-width="2.18084" stroke-miterlimit="10" stroke-linecap="round" stroke-linejoin="round"/>
<path d="M5.32422 76.1184H102.083" stroke="white" stroke-width="2.18084" stroke-miterlimit="10" stroke-linecap="round" stroke-linejoin="round"/>
<path d="M31.1172 71.9063H71.3584" stroke="white" stroke-width="2.18084" stroke-miterlimit="10" stroke-linecap="round" stroke-linejoin="round"/>
<path d="M16.9414 58.0037H19.8558" stroke="white" stroke-width="2.38118" stroke-miterlimit="10" stroke-linecap="round" stroke-linejoin="round"/>
<path d="M28.2363 58.0037H31.1507" stroke="white" stroke-width="2.38118" stroke-miterlimit="10" stroke-linecap="round" stroke-linejoin="round"/>
<path d="M39.5322 58.0037H42.4466" stroke="white" stroke-width="2.38118" stroke-miterlimit="10" stroke-linecap="round" stroke-linejoin="round"/>
<path d="M50.8262 58.0037H53.7488" stroke="white" stroke-width="2.38118" stroke-miterlimit="10" stroke-linecap="round" stroke-linejoin="round"/>
<path d="M62.1221 58.0037H65.0447" stroke="white" stroke-width="2.38118" stroke-miterlimit="10" stroke-linecap="round" stroke-linejoin="round"/>
<path d="M73.416 58.0037H76.3386" stroke="white" stroke-width="2.38118" stroke-miterlimit="10" stroke-linecap="round" stroke-linejoin="round"/>
<path d="M84.7217 58.0037H87.636" stroke="white" stroke-width="2.38118" stroke-miterlimit="10" stroke-linecap="round" stroke-linejoin="round"/>
<path d="M16.8828 62.6352H19.7972" stroke="white" stroke-width="2.38118" stroke-miterlimit="10" stroke-linecap="round" stroke-linejoin="round"/>
<path d="M28.1787 62.6352H31.1013" stroke="white" stroke-width="2.38118" stroke-miterlimit="10" stroke-linecap="round" stroke-linejoin="round"/>
<path d="M39.4746 62.6352H42.3972" stroke="white" stroke-width="2.38118" stroke-miterlimit="10" stroke-linecap="round" stroke-linejoin="round"/>
<path d="M50.7686 62.6352H53.6912" stroke="white" stroke-width="2.38118" stroke-miterlimit="10" stroke-linecap="round" stroke-linejoin="round"/>
<path d="M62.0645 62.6352H64.9871" stroke="white" stroke-width="2.38118" stroke-miterlimit="10" stroke-linecap="round" stroke-linejoin="round"/>
<path d="M73.3662 62.6352H76.2806" stroke="white" stroke-width="2.38118" stroke-miterlimit="10" stroke-linecap="round" stroke-linejoin="round"/>
<path d="M84.6621 62.6352H87.5765" stroke="white" stroke-width="2.38118" stroke-miterlimit="10" stroke-linecap="round" stroke-linejoin="round"/>
<path d="M16.8828 68.0565H19.7972" stroke="white" stroke-width="2.38118" stroke-miterlimit="10" stroke-linecap="round" stroke-linejoin="round"/>
<path d="M28.1787 68.0565H31.1013" stroke="white" stroke-width="2.38118" stroke-miterlimit="10" stroke-linecap="round" stroke-linejoin="round"/>
<path d="M39.4746 68.0565H42.3972" stroke="white" stroke-width="2.38118" stroke-miterlimit="10" stroke-linecap="round" stroke-linejoin="round"/>
<path d="M50.7686 68.0565H53.6912" stroke="white" stroke-width="2.38118" stroke-miterlimit="10" stroke-linecap="round" stroke-linejoin="round"/>
<path d="M62.0645 68.0565H64.9871" stroke="white" stroke-width="2.38118" stroke-miterlimit="10" stroke-linecap="round" stroke-linejoin="round"/>
<path d="M73.3662 68.0565H76.2806" stroke="white" stroke-width="2.38118" stroke-miterlimit="10" stroke-linecap="round" stroke-linejoin="round"/>
<path d="M84.6621 68.0565H87.5765" stroke="white" stroke-width="2.38118" stroke-miterlimit="10" stroke-linecap="round" stroke-linejoin="round"/>
</g>
</g>
<defs>
<filter id="filter0_d" x="0.713074" y="0.821533" width="105.982" height="87.9898" filterUnits="userSpaceOnUse" color-interpolation-filters="sRGB">
<feFlood flood-opacity="0" result="BackgroundImageFix"/>
<feColorMatrix in="SourceAlpha" type="matrix" values="0 0 0 0 0 0 0 0 0 0 0 0 0 0 0 0 0 0 127 0"/>
<feOffset dy="3.37677"/>
<feGaussianBlur stdDeviation="1.68838"/>
<feColorMatrix type="matrix" values="0 0 0 0 0 0 0 0 0 0 0 0 0 0 0 0 0 0 0.1 0"/>
<feBlend mode="normal" in2="BackgroundImageFix" result="effect1_dropShadow"/>
<feBlend mode="normal" in="SourceGraphic" in2="effect1_dropShadow" result="shape"/>
</filter>
<clipPath id="clip0">
<rect width="99.2282" height="81.2363" fill="white" transform="translate(4.08984 0.821533)"/>
</clipPath>
</defs>
</svg>
