<svg width="95" height="95" viewBox="0 0 95 95" fill="none" xmlns="http://www.w3.org/2000/svg">
<g clip-path="url(#clip0)" filter="url(#filter0_d)">
<path d="M45.3735 54.9638V52.0602C43.7071 52.0284 41.9931 51.5113 40.9854 50.7954L41.6757 48.8702C42.7073 49.5623 44.1991 50.1033 45.802 50.1033C47.8334 50.1033 49.2141 48.9259 49.2141 47.2872C49.2141 45.7041 48.0953 44.7257 45.9766 43.8665C43.0485 42.713 41.2472 41.3925 41.2472 38.8946C41.2472 36.5081 42.9374 34.6944 45.5798 34.2648V31.3612H47.3573V34.1455C49.0792 34.2012 50.2537 34.6625 51.0869 35.1478L50.3727 37.0491C49.7696 36.707 48.5952 36.0706 46.7622 36.0706C44.5562 36.0706 43.723 37.3911 43.723 38.5446C43.723 40.0402 44.7863 40.7879 47.278 41.8221C50.2299 43.0312 51.7217 44.5268 51.7217 47.0804C51.7217 49.3476 50.1426 51.4795 47.1907 51.9648V54.9559H45.3735V54.9638Z" fill="white"/>
<path d="M58.5442 3.33569L55.7589 11.6885C55.0844 13.7011 66.6143 19.914 67.9236 18.2434L73.256 11.3941" stroke="white" stroke-width="2.58374" stroke-miterlimit="10" stroke-linecap="round" stroke-linejoin="round"/>
<path d="M19.1543 11.6408L24.9073 18.3151C26.2404 19.9697 37.6512 13.55 36.9529 11.5453L34.0487 3.35162" stroke="white" stroke-width="2.58374" stroke-miterlimit="10" stroke-linecap="round" stroke-linejoin="round"/>
<path d="M5.54492 51.0262L11.2186 50.0796L14.2102 49.5784C16.2971 49.2284 16.3765 36.1105 14.2816 35.7366L5.75124 34.2252" stroke="white" stroke-width="2.58374" stroke-miterlimit="10" stroke-linecap="round" stroke-linejoin="round"/>
<path d="M32.9207 82.5839L35.9678 74.3265C36.7058 72.3378 25.3823 65.7669 24.0174 67.3977L18.4707 74.072" stroke="white" stroke-width="2.58374" stroke-miterlimit="10" stroke-linecap="round" stroke-linejoin="round"/>
<path d="M48.0386 9.03146C48.0386 9.9622 47.2848 10.7259 46.3484 10.7259C45.42 10.7259 44.6582 9.97015 44.6582 9.03146C44.6582 8.10072 45.412 7.33704 46.3484 7.33704C47.2848 7.33704 48.0386 8.10072 48.0386 9.03146Z" fill="white"/>
<path d="M76.782 27.7654C75.9726 28.2268 74.941 27.9404 74.4807 27.129C74.0205 26.3176 74.3062 25.2834 75.1156 24.8221C75.925 24.3607 76.9565 24.647 77.4168 25.4585C77.877 26.2699 77.5913 27.304 76.782 27.7654Z" fill="white"/>
<path d="M44.6641 77.2857C44.6641 76.3549 45.4179 75.5912 46.3543 75.5912C47.2827 75.5912 48.0445 76.347 48.0445 77.2857C48.0445 78.2164 47.2906 78.9801 46.3543 78.9801C45.4179 78.9801 44.6641 78.2244 44.6641 77.2857Z" fill="white"/>
<path d="M16.1454 59.0049C16.9469 58.5276 17.9864 58.7981 18.4545 59.6095C18.9307 60.413 18.6609 61.4551 17.8515 61.9244C17.05 62.4017 16.0105 62.1313 15.5423 61.3198C15.0742 60.5164 15.3439 59.4743 16.1454 59.0049Z" fill="white"/>
<path d="M48.0383 84.8034C43.4835 84.9864 38.8097 84.4216 34.1993 83.0056C12.2506 76.2836 -0.10452 52.9912 6.60072 30.9876C13.306 8.97601 36.5402 -3.40999 58.4969 3.31202C76.9859 8.976 88.6665 26.3896 87.8888 44.893" stroke="white" stroke-width="2.58374" stroke-miterlimit="10" stroke-linecap="round" stroke-linejoin="round"/>
<path d="M17.5282 24.9255C18.3375 25.3869 18.6232 26.4131 18.1709 27.2325C17.7107 28.0439 16.687 28.3303 15.8697 27.8769C15.0524 27.4234 14.7746 26.3893 15.227 25.5699C15.6872 24.7505 16.7188 24.4642 17.5282 24.9255Z" fill="white"/>
<path d="M42.165 67.3975V62.1552" stroke="white" stroke-width="2.58374" stroke-miterlimit="10" stroke-linecap="round" stroke-linejoin="round"/>
<path d="M42.165 23.8597V19.1344" stroke="white" stroke-width="2.58374" stroke-miterlimit="10" stroke-linecap="round" stroke-linejoin="round"/>
<path d="M49.292 24.1143V19.1344" stroke="white" stroke-width="2.58374" stroke-miterlimit="10" stroke-linecap="round" stroke-linejoin="round"/>
<path d="M70.5512 39.205H65.0283" stroke="white" stroke-width="2.58374" stroke-miterlimit="10" stroke-linecap="round" stroke-linejoin="round"/>
<path d="M48.204 67.7318C38.65 68.4398 29.1437 63.4917 24.4937 54.4309C18.2963 42.3472 23.0653 27.4633 35.1189 21.2584C47.1724 15.0455 62.0192 19.8265 68.2086 31.9023C70.3432 36.0548 71.1764 40.5414 70.859 44.8928" stroke="white" stroke-width="2.58374" stroke-miterlimit="10" stroke-linecap="round" stroke-linejoin="round"/>
<path d="M22.2959 39.205H27.4062" stroke="white" stroke-width="2.58374" stroke-miterlimit="10" stroke-linecap="round" stroke-linejoin="round"/>
<path d="M21.9863 46.5394H27.4061" stroke="white" stroke-width="2.58374" stroke-miterlimit="10" stroke-linecap="round" stroke-linejoin="round"/>
<path d="M70.5519 48.7669L76.6065 61.0654L90.1439 63.0382L80.3519 72.6082L82.661 86.1238L70.5519 79.7438L58.4428 86.1238L60.7599 72.6082L50.96 63.0382L64.4974 61.0654L70.5519 48.7669Z" stroke="white" stroke-width="2.58374" stroke-miterlimit="10" stroke-linecap="round" stroke-linejoin="round"/>
<path d="M87.9065 44.4631C87.9065 44.4631 87.1447 52.5614 84.8594 57.7481" stroke="#EEEEEE" stroke-width="2.58374" stroke-miterlimit="10" stroke-linecap="round" stroke-linejoin="round"/>
</g>
<defs>
<filter id="filter0_d" x="0.207215" y="0.288818" width="94.5009" height="93.7817" filterUnits="userSpaceOnUse" color-interpolation-filters="sRGB">
<feFlood flood-opacity="0" result="BackgroundImageFix"/>
<feColorMatrix in="SourceAlpha" type="matrix" values="0 0 0 0 0 0 0 0 0 0 0 0 0 0 0 0 0 0 127 0"/>
<feOffset dy="3.37677"/>
<feGaussianBlur stdDeviation="1.68838"/>
<feColorMatrix type="matrix" values="0 0 0 0 0 0 0 0 0 0 0 0 0 0 0 0 0 0 0.1 0"/>
<feBlend mode="normal" in2="BackgroundImageFix" result="effect1_dropShadow"/>
<feBlend mode="normal" in="SourceGraphic" in2="effect1_dropShadow" result="shape"/>
</filter>
<clipPath id="clip0">
<rect width="87.7474" height="87.0281" fill="white" transform="translate(3.58398 0.288818)"/>
</clipPath>
</defs>
</svg>
