<svg width="100" height="85" viewBox="0 0 100 85" fill="none" xmlns="http://www.w3.org/2000/svg">
<g clip-path="url(#clip0)">
<g filter="url(#filter0_d)">
<path d="M74.3945 78.3411L56.2879 82.731C53.7727 83.3403 51.2418 81.7936 50.6247 79.2784L43.3368 49.2519C42.7275 46.7366 44.2742 44.2058 46.7894 43.5965L64.8959 39.2066C67.4112 38.5973 69.942 40.1439 70.5591 42.6591L77.8392 72.6935C78.4563 75.2009 76.9097 77.7318 74.3945 78.3411Z" stroke="white" stroke-width="2.34338" stroke-miterlimit="10" stroke-linecap="round" stroke-linejoin="round"/>
<path d="M64.5931 63.9999C65.8585 63.9921 66.9755 63.0703 67.327 61.8596C67.8972 59.8833 66.2881 58.6492 64.6477 57.7196C62.5387 56.5323 60.0625 55.5012 58.7815 53.4859C58.5706 55.8683 56.8365 57.9071 55.5085 59.938C54.4696 61.5159 53.6104 63.3515 55.0242 64.8435C56.0319 65.9136 57.8129 66.1089 58.9767 65.1794" stroke="white" stroke-width="2.34338" stroke-miterlimit="10" stroke-linecap="round" stroke-linejoin="round"/>
<path d="M58.6709 70.6396C61.8735 68.7493 62.061 65.8279 61.9126 64.9921C62.1469 65.7576 63.5842 68.2884 67.3492 68.5306" stroke="white" stroke-width="2.34338" stroke-miterlimit="10" stroke-linecap="round" stroke-linejoin="round"/>
<path d="M48.8059 49.4396C49.1808 49.5881 49.5558 49.8224 49.9776 49.8224C50.3994 49.8224 50.7743 49.5099 50.8915 49.1116C51.079 48.4554 50.5478 48.0414 50.001 47.729C49.298 47.3306 48.47 46.9947 48.0482 46.3151C47.9779 47.1041 47.3999 47.7915 46.9546 48.4632C46.6109 48.9866 46.3219 49.6037 46.7906 50.0958C47.1265 50.4551 47.7201 50.5176 48.1107 50.2051C48.3685 50.0099 48.5872 49.6974 48.8059 49.4396Z" fill="white"/>
<path d="M50.6499 50.752L47.7598 51.4551C48.8377 50.8692 48.9315 50.0178 48.8846 49.7756C48.9627 49.9944 49.4079 50.7208 50.6499 50.752Z" fill="white"/>
<path d="M72.8108 74.2719C73.1857 74.4203 73.5607 74.6546 73.9825 74.6546C74.4043 74.6546 74.7792 74.3422 74.8964 73.9438C75.0839 73.2876 74.5527 72.8736 74.0059 72.5612C73.3029 72.1628 72.4749 71.8191 72.0531 71.1473C71.9828 71.9363 71.4047 72.6237 70.9595 73.2954C70.6158 73.8188 70.3268 74.4359 70.7955 74.928C71.1313 75.2873 71.725 75.3498 72.1156 75.0374C72.3733 74.8343 72.5842 74.5218 72.8108 74.2719Z" fill="white"/>
<path d="M74.6529 75.5838L71.7627 76.2868C72.8407 75.701 72.9344 74.8496 72.8875 74.6074C72.9578 74.8261 73.4109 75.5526 74.6529 75.5838Z" fill="white"/>
<path d="M72.793 39.6443C73.1992 38.4101 74.5271 37.7461 75.7613 38.1523L96.2581 44.9325C97.4922 45.3387 98.1562 46.6666 97.75 47.9008L87.3454 79.3334C86.9392 80.5676 85.6113 81.2315 84.3771 80.8253L80.409 79.513" stroke="white" stroke-width="2.34338" stroke-miterlimit="10" stroke-linecap="round" stroke-linejoin="round"/>
<path d="M78.8779 66.5855L86.283 61.5394L82.8617 51.0879L81.4791 52.0331" stroke="white" stroke-width="2.34338" stroke-miterlimit="10" stroke-linecap="round" stroke-linejoin="round"/>
<path d="M77.928 54.4778L76.2314 55.6428" stroke="white" stroke-width="2.34338" stroke-miterlimit="10" stroke-linecap="round" stroke-linejoin="round"/>
<path d="M76.6657 41.7926L74.4395 43.3236L75.2831 45.9951L77.5249 44.4094L76.6657 41.7926Z" fill="white"/>
<path d="M84.5963 73.4515L82.3701 74.9825L83.2059 77.6539L85.4556 76.0683L84.5963 73.4515Z" fill="white"/>
<path d="M92.0327 38.2157V1.68237H1.35156V60.267H41.2125" stroke="white" stroke-width="2.38986" stroke-miterlimit="10" stroke-linecap="round" stroke-linejoin="round"/>
<path d="M40.0641 54.9464H6.6709V7.00079H86.7131V37.3242" stroke="white" stroke-width="2.34338" stroke-miterlimit="10" stroke-linecap="round" stroke-linejoin="round"/>
<path d="M37.0713 60.2659V72.5374" stroke="white" stroke-width="1.85214" stroke-miterlimit="10" stroke-linecap="round" stroke-linejoin="round"/>
<path d="M44.2821 72.5375H21.2232C16.1146 72.5375 11.9746 76.6775 11.9746 81.786H46.6957" stroke="white" stroke-width="2.34338" stroke-miterlimit="10" stroke-linecap="round" stroke-linejoin="round"/>
</g>
</g>
<path d="M31.0173 35.0855H28.6513L25.1531 28.9433V35.0855H22.7735V25.2146H25.1531L28.6445 31.3568V25.2146H31.0173V35.0855ZM47.7384 30.9026H43.9961V33.2551H48.4163V35.0855H41.6166V25.2146H48.4299V27.0519H43.9961V29.1332H47.7384V30.9026ZM66.1272 31.4043L67.2594 25.2146H69.6187L67.5238 35.0855H65.0561L63.7341 29.4586L62.4392 35.0855H59.9783L57.8767 25.2146H60.2427L61.3748 31.4043L62.7307 25.2146H64.751L66.1272 31.4043Z" fill="white"/>
<defs>
<filter id="filter0_d" x="-3.22052" y="0.487427" width="105.639" height="90.3018" filterUnits="userSpaceOnUse" color-interpolation-filters="sRGB">
<feFlood flood-opacity="0" result="BackgroundImageFix"/>
<feColorMatrix in="SourceAlpha" type="matrix" values="0 0 0 0 0 0 0 0 0 0 0 0 0 0 0 0 0 0 127 0"/>
<feOffset dy="3.37677"/>
<feGaussianBlur stdDeviation="1.68838"/>
<feColorMatrix type="matrix" values="0 0 0 0 0 0 0 0 0 0 0 0 0 0 0 0 0 0 0.1 0"/>
<feBlend mode="normal" in2="BackgroundImageFix" result="effect1_dropShadow"/>
<feBlend mode="normal" in="SourceGraphic" in2="effect1_dropShadow" result="shape"/>
</filter>
<clipPath id="clip0">
<rect width="98.8752" height="83.526" fill="white" transform="translate(0.179688 0.509766)"/>
</clipPath>
</defs>
</svg>
