<svg width="95" height="91" viewBox="0 0 95 91" fill="none" xmlns="http://www.w3.org/2000/svg">
<g clip-path="url(#clip0)" filter="url(#filter0_d)">
<path d="M46.6939 40.8802V37.1864C44.5982 37.1527 42.436 36.4949 41.1719 35.5841L42.0368 33.1384C43.3341 34.0155 45.2136 34.707 47.2262 34.707C49.7876 34.707 51.5174 33.2059 51.5174 31.1313C51.5174 29.1242 50.1036 27.8761 47.4424 26.7798C43.7666 25.3124 41.4879 23.6426 41.4879 20.4549C41.4879 17.4189 43.6169 15.125 46.9268 14.5685V10.8747H49.1555V14.4167C51.3178 14.4841 52.7981 15.0744 53.846 15.6985L52.9478 18.1104C52.1827 17.6719 50.719 16.8623 48.4071 16.8623C45.6294 16.8623 44.5816 18.5489 44.5816 19.9995C44.5816 21.9054 45.9122 22.8499 49.0558 24.1655C52.7648 25.7003 54.6443 27.6062 54.6443 30.8615C54.6443 33.7456 52.665 36.4611 48.9393 37.0683V40.8633H46.6939V40.8802Z" fill="white"/>
<path d="M65.3406 36.7787C71.4111 27.0944 68.4813 14.3228 58.7965 8.25248C49.1118 2.18221 36.3396 5.11198 30.269 14.7963C24.1985 24.4806 27.1284 37.2522 36.8131 43.3225C46.4979 49.3928 59.2701 46.463 65.3406 36.7787Z" stroke="white" stroke-width="2.23684" stroke-miterlimit="10" stroke-linecap="round" stroke-linejoin="round"/>
<path d="M58.6148 68.7128C58.5222 67.8017 58.3909 66.9601 58.2365 66.1803C57.7192 63.5551 57.889 60.8142 58.9005 58.3357C59.3947 57.1158 60.0819 55.8264 61.0393 54.5524C61.8192 53.5255 64.4985 50.0588 69.2317 48.6613C70.2046 48.3756 71.0617 48.2366 71.6639 48.1594C71.6639 48.1594 78.0109 42.415 80.8446 40.5388C82.5588 39.4038 84.8597 39.7512 86.2032 41.3109L79.3004 49.7654C78.3352 51.464 77.3777 53.1704 76.4126 54.869" stroke="white" stroke-width="1.73435" stroke-miterlimit="10" stroke-linecap="round" stroke-linejoin="round"/>
<path d="M72.6602 68.7282C73.3165 66.52 74.2894 65.0452 75.5248 64.0801L87.0682 52.9464C88.2573 51.8114 89.0603 50.329 89.3692 48.7153C89.9483 45.6809 90.844 40.7549 90.844 38.7784L89.5468 23.6606C89.5468 23.3054 89.1761 23.3286 88.736 23.483C87.794 23.8073 87.0373 24.5022 86.5432 25.367C85.8482 26.6255 86.3656 29.0422 86.3887 30.8875L85.6938 38.153" stroke="white" stroke-width="1.73435" stroke-miterlimit="10" stroke-linecap="round" stroke-linejoin="round"/>
<path d="M82.2959 36.3541L82.682 32.2928C82.682 30.3085 82.6202 27.6988 82.6048 25.5987C82.6048 25.0891 82.6974 24.5872 82.8827 24.1163C82.9445 23.9618 83.0063 23.7997 83.0758 23.6453C83.3923 22.8809 83.9869 22.2478 84.7513 21.9389C84.8208 21.908 84.8826 21.8849 84.952 21.8617C85.562 21.6455 86.1952 22.0934 86.1952 22.7342V24.9578" stroke="white" stroke-width="1.73435" stroke-miterlimit="10" stroke-linecap="round" stroke-linejoin="round"/>
<path d="M81.2534 25.6991C81.2534 25.6991 78.0722 24.6644 78.7903 33.5359L77.9873 37.2883" stroke="white" stroke-width="1.73435" stroke-miterlimit="10" stroke-linecap="round" stroke-linejoin="round"/>
<path d="M77.6018 29.297C77.6018 29.297 75.6329 30.2776 74.9457 32.8409L74.3511 37.96L72.0811 43.1794" stroke="white" stroke-width="1.73435" stroke-miterlimit="10" stroke-linecap="round" stroke-linejoin="round"/>
<path d="M18.7937 54.8615C17.8363 53.1628 16.8711 51.4565 15.9136 49.7579L9.01074 41.3034C10.3543 39.7514 12.6475 39.3963 14.3694 40.5313C17.2031 42.4075 23.5501 48.1519 23.5501 48.1519C24.1523 48.2291 25.0017 48.3681 25.9823 48.6538C30.7155 50.059 33.3948 53.518 34.1747 54.5449C35.1321 55.8189 35.827 57.116 36.3212 58.3282C37.3327 60.8067 37.5103 63.5476 36.9852 66.1728C36.8308 66.9449 36.6995 67.7787 36.6069 68.6821" stroke="white" stroke-width="1.73435" stroke-miterlimit="10" stroke-linecap="round" stroke-linejoin="round"/>
<path d="M9.52115 38.153L8.82623 30.8875C8.84939 29.0422 9.36672 26.6255 8.6718 25.367C8.17763 24.5022 7.41322 23.8073 6.47893 23.483C6.03109 23.3286 5.66819 23.3054 5.66819 23.6606L4.36328 38.7784C4.36328 40.7549 5.25896 45.6809 5.83806 48.7153C6.15464 50.329 6.94994 51.8114 8.13903 52.9464L19.6825 64.0801C20.8175 64.968 21.9371 66.5895 22.7092 68.705" stroke="white" stroke-width="1.73435" stroke-miterlimit="10" stroke-linecap="round" stroke-linejoin="round"/>
<path d="M12.91 36.3541L12.524 32.2928C12.524 30.3085 12.5857 27.6988 12.6012 25.5987C12.6012 25.0891 12.5085 24.5872 12.3232 24.1163C12.2614 23.9618 12.1997 23.7997 12.1302 23.6453C11.8136 22.8809 11.2191 22.2478 10.4546 21.9389C10.3851 21.908 10.3234 21.8849 10.2539 21.8617C9.64389 21.6455 9.01074 22.0934 9.01074 22.7342V24.9578" stroke="white" stroke-width="1.73435" stroke-miterlimit="10" stroke-linecap="round" stroke-linejoin="round"/>
<path d="M13.9521 25.6991C13.9521 25.6991 17.1334 24.6644 16.4153 33.5359L17.2183 37.2883" stroke="white" stroke-width="1.73435" stroke-miterlimit="10" stroke-linecap="round" stroke-linejoin="round"/>
<path d="M17.6055 29.297C17.6055 29.297 19.5744 30.2776 20.2616 32.8409L20.8562 37.96L23.1262 43.1794" stroke="white" stroke-width="1.73435" stroke-miterlimit="10" stroke-linecap="round" stroke-linejoin="round"/>
<path d="M38.894 68.7051L15.9307 68.736L15.9538 83.0971L38.6006 82.9041L38.894 68.7051Z" stroke="white" stroke-width="1.73435" stroke-miterlimit="10" stroke-linecap="round" stroke-linejoin="round"/>
<path d="M25.6738 76.2485L29.5036 76.2331" stroke="white" stroke-width="2.1868" stroke-miterlimit="10" stroke-linecap="round" stroke-linejoin="round"/>
<path d="M25.6821 76.2485C25.6744 76.4956 25.6281 76.7427 25.5432 76.9897C25.0953 78.2251 23.7364 78.866 22.5009 78.4181C21.2655 77.9703 20.6246 76.6114 21.0725 75.3761C21.5203 74.1407 22.8793 73.4998 24.1147 73.9477" stroke="white" stroke-width="2.1868" stroke-miterlimit="10" stroke-linecap="round" stroke-linejoin="round"/>
<path d="M55.71 68.7051L78.681 68.736L78.6578 83.0971L56.0034 82.9041L55.71 68.7051Z" stroke="white" stroke-width="1.73435" stroke-miterlimit="10" stroke-linecap="round" stroke-linejoin="round"/>
<path d="M65.1064 76.2331L68.9285 76.2485" stroke="white" stroke-width="2.1868" stroke-miterlimit="10" stroke-linecap="round" stroke-linejoin="round"/>
<path d="M68.9297 76.2485C68.9374 76.4956 68.9837 76.7427 69.0687 76.9897C69.5165 78.2251 70.8755 78.866 72.1109 78.4181C73.3463 77.9703 73.9872 76.6114 73.5393 75.3761C73.0915 74.1407 71.7325 73.4998 70.4971 73.9477" stroke="white" stroke-width="2.1868" stroke-miterlimit="10" stroke-linecap="round" stroke-linejoin="round"/>
</g>
<defs>
<filter id="filter0_d" x="0.0449758" y="0.358643" width="95.1139" height="90.2148" filterUnits="userSpaceOnUse" color-interpolation-filters="sRGB">
<feFlood flood-opacity="0" result="BackgroundImageFix"/>
<feColorMatrix in="SourceAlpha" type="matrix" values="0 0 0 0 0 0 0 0 0 0 0 0 0 0 0 0 0 0 127 0"/>
<feOffset dy="3.15913"/>
<feGaussianBlur stdDeviation="1.57956"/>
<feColorMatrix type="matrix" values="0 0 0 0 0 0 0 0 0 0 0 0 0 0 0 0 0 0 0.1 0"/>
<feBlend mode="normal" in2="BackgroundImageFix" result="effect1_dropShadow"/>
<feBlend mode="normal" in="SourceGraphic" in2="effect1_dropShadow" result="shape"/>
</filter>
<clipPath id="clip0">
<rect width="88.7956" height="83.8966" fill="white" transform="translate(3.2041 0.358643)"/>
</clipPath>
</defs>
</svg>
