<svg width="83" height="96" viewBox="0 0 83 96" fill="none" xmlns="http://www.w3.org/2000/svg">
<g clip-path="url(#clip0)" filter="url(#filter0_d)">
<path d="M53.8294 87.6313C53.6738 87.5494 53.5101 87.4675 53.3627 87.3693C50.3415 85.74 47.6724 83.5048 45.5436 80.8029L44.0535 78.9198C41.8347 76.1114 39.4112 73.4587 36.8158 70.9861L27.9814 62.5857C27.9814 62.5857 29.2587 60.6289 31.9278 60.4733C33.1805 60.3996 34.425 60.7926 35.4648 61.5049L41.7365 65.8197L34.1384 47.6435L34.1466 47.6353L31.4284 41.1344C30.6096 39.1858 31.5348 36.9342 33.508 36.1318C34.6543 35.657 35.8906 35.7798 36.8895 36.3611C37.5854 36.7623 38.1585 37.3845 38.4942 38.1869L45.2161 54.218C45.3635 54.5701 45.7565 54.7502 46.125 54.6356C46.3051 54.5783 46.4443 54.4555 46.5261 54.3163C46.6326 54.128 46.6571 53.8987 46.5671 53.6777L45.6583 51.3606C44.9869 49.6658 45.8793 47.7581 47.6069 47.1768C48.4993 46.882 49.4409 47.0049 50.2023 47.447C50.8082 47.799 51.2913 48.3476 51.5696 49.0354L52.4457 51.3033C52.5767 51.639 52.9533 51.7864 53.2808 51.6554L53.723 51.4752C54.0587 51.336 54.1978 50.9512 54.0505 50.6155C53.6247 49.6494 53.7148 48.6014 54.206 47.7581C54.5908 47.0867 55.2295 46.5627 56.04 46.3253C56.8997 46.0715 57.7758 46.2107 58.5045 46.6282C59.0776 46.9557 59.5607 47.4797 59.8308 48.1429L61.411 51.9665C61.5584 52.3349 61.935 52.5396 62.328 52.4741C62.5818 52.425 62.7865 52.2858 62.9093 52.0729C63.0322 51.8682 63.0649 51.598 62.9667 51.3442L62.4836 50.0915C61.845 48.4377 62.7865 46.5873 64.5059 46.1206C65.3001 45.9159 66.1107 46.0469 66.7739 46.4317C67.3552 46.7674 67.8218 47.2914 68.0757 47.971L71.2606 56.486L73.463 62.3564C74.9122 66.2127 75.6245 70.2983 75.5754 74.4166C75.5427 77.577 78.1054 83.4802 78.1054 83.4802" stroke="white" stroke-width="2.45625" stroke-miterlimit="10" stroke-linecap="round" stroke-linejoin="round"/>
<path d="M54.7161 9.26101V11.1851H5.3291V8.97445C5.3291 8.26214 5.44373 7.55801 5.67298 6.87845C5.7221 6.73108 5.77941 6.57551 5.83673 6.42814C5.86129 6.36264 5.89404 6.28895 5.92679 6.20707C5.9841 6.07607 6.05779 5.9287 6.13148 5.78951C6.27066 5.51114 6.43441 5.22457 6.62273 4.97076C6.90929 4.57776 7.2286 4.20114 7.58885 3.85726C9.16085 2.35895 11.3715 1.50745 13.664 1.50745H46.0538C47.1836 1.50745 48.3053 1.71213 49.3369 2.08057C50.3604 2.4572 51.3183 3.02213 52.1371 3.72626C53.7746 5.19182 54.7161 7.18958 54.7161 9.26101Z" stroke="white" stroke-width="2.45625" stroke-miterlimit="10" stroke-linecap="round" stroke-linejoin="round"/>
<path d="M54.7158 42.1412V33.4297V11.1842" stroke="white" stroke-width="2.45625" stroke-miterlimit="10" stroke-linecap="round" stroke-linejoin="round"/>
<path d="M5.32715 11.1842V17.4231V25.5697V50.5006V77.5603V79.7709C5.32715 80.4833 5.44177 81.1874 5.67102 81.867C5.70377 81.9816 5.73652 82.088 5.78565 82.2026C5.8184 82.3091 5.86752 82.4237 5.92484 82.5219C6.0149 82.743 6.12952 82.9477 6.24415 83.1524C6.58802 83.7746 7.03834 84.3641 7.5869 84.88C8.1764 85.4449 8.85596 85.9198 9.59284 86.28C9.84665 86.4028 10.0841 86.5175 10.3543 86.6157C10.5508 86.6976 10.7473 86.7549 10.9438 86.8204C11.345 86.9432 11.7625 87.0415 12.1719 87.107C12.3766 87.1397 12.5977 87.1643 12.8023 87.1888C13.0807 87.2216 13.3673 87.238 13.6538 87.238H46.0436" stroke="white" stroke-width="2.45625" stroke-miterlimit="10" stroke-linecap="round" stroke-linejoin="round"/>
<path d="M5.32715 73.0983H31.3061" stroke="white" stroke-width="2.45625" stroke-miterlimit="10" stroke-linecap="round" stroke-linejoin="round"/>
</g>
<defs>
<filter id="filter0_d" x="-0.37677" y="0.146973" width="84.1902" height="97.9263" filterUnits="userSpaceOnUse" color-interpolation-filters="sRGB">
<feFlood flood-opacity="0" result="BackgroundImageFix"/>
<feColorMatrix in="SourceAlpha" type="matrix" values="0 0 0 0 0 0 0 0 0 0 0 0 0 0 0 0 0 0 127 0"/>
<feOffset dy="3.37677"/>
<feGaussianBlur stdDeviation="1.68838"/>
<feColorMatrix type="matrix" values="0 0 0 0 0 0 0 0 0 0 0 0 0 0 0 0 0 0 0.1 0"/>
<feBlend mode="normal" in2="BackgroundImageFix" result="effect1_dropShadow"/>
<feBlend mode="normal" in="SourceGraphic" in2="effect1_dropShadow" result="shape"/>
</filter>
<clipPath id="clip0">
<rect width="77.4366" height="91.1728" fill="white" transform="translate(3 0.146973)"/>
</clipPath>
</defs>
</svg>
