<svg width="79" height="78" viewBox="0 0 79 78" fill="none" xmlns="http://www.w3.org/2000/svg">
<path d="M51.9604 71.3599C51.9587 71.3599 51.9587 71.3599 51.957 71.3599C51.593 71.3599 51.2476 71.2406 51.0083 70.9665L39.4914 57.7923C39.033 57.2678 39.0887 56.4811 39.6145 56.0238C40.1402 55.5666 40.939 55.6271 41.3974 56.1516L51.9671 68.2618L76.0103 41.0441L67.783 32.7028L37.7405 32.6894C37.0428 32.6894 36.4766 32.1279 36.4766 31.432C36.4766 30.736 37.0428 30.1746 37.7405 30.1746L68.3121 30.1846C68.6509 30.1846 68.9744 30.3191 69.2121 30.5595L78.6358 40.1145C79.101 40.5852 79.1212 41.335 78.683 41.8325L52.9092 70.9716C52.6682 71.2439 52.3227 71.3599 51.9604 71.3599Z" fill="#F73E42"/>
<path d="M77.7328 42.278H43.5227C42.825 42.278 42.2588 41.7132 42.2588 41.0172C42.2588 40.3213 42.825 39.7565 43.5227 39.7565H77.7328C78.4305 39.7565 78.9967 40.3213 78.9967 41.0172C78.9967 41.7132 78.4305 42.278 77.7328 42.278Z" fill="#F73E42"/>
<path d="M61.5077 60.6198C61.0493 60.6198 60.6061 60.3693 60.382 59.9339L52.0822 43.7943L43.6342 59.9423C43.3106 60.5593 42.5472 60.798 41.9288 60.4769C41.3103 60.1541 41.0693 59.3926 41.3929 58.7757L50.9717 40.4507C51.1891 40.0338 51.6222 39.7565 52.0923 39.7565C52.094 39.7565 52.0957 39.7565 52.0974 39.7565C52.5693 39.7565 53.0024 40.0389 53.2181 40.4591L62.6334 58.7757C62.9519 59.396 62.7076 60.1592 62.0857 60.4769C61.8987 60.571 61.7015 60.6198 61.5077 60.6198Z" fill="#F73E42"/>
<path d="M52.0904 42.3116C51.8444 42.3116 51.5983 42.2394 51.386 42.0981L37.0228 32.4776C36.4431 32.0893 36.2897 31.3059 36.679 30.7276C37.0683 30.1494 37.8536 29.9964 38.4333 30.3847L52.1325 39.5615L67.667 30.336C68.2669 29.9796 69.0421 30.1763 69.3994 30.7747C69.7566 31.3732 69.5595 32.1464 68.9595 32.5028L52.7375 42.1368C52.537 42.2528 52.3129 42.3116 52.0904 42.3116Z" fill="#F73E42"/>
<path d="M10.0355 50.1402C4.50124 50.1402 0 45.6502 0 40.1297C0 34.6092 4.50124 30.1191 10.0355 30.1191C15.5698 30.1191 20.071 34.6092 20.071 40.1297C20.071 45.6502 15.5698 50.1402 10.0355 50.1402ZM10.0355 32.6407C5.89492 32.6407 2.52784 36.0011 2.52784 40.1297C2.52784 44.2583 5.89492 47.6187 10.0355 47.6187C14.1744 47.6187 17.5432 44.2583 17.5432 40.1297C17.5432 36.0011 14.1744 32.6407 10.0355 32.6407Z" fill="#F73E42"/>
<path d="M31.6517 57.8007C26.1174 57.8007 21.6162 53.3106 21.6162 47.7901C21.6162 42.2696 26.1174 37.7796 31.6517 37.7796C37.186 37.7796 41.6872 42.2696 41.6872 47.7901C41.6872 53.309 37.1843 57.8007 31.6517 57.8007ZM31.6517 40.3011C27.5128 40.3011 24.144 43.6615 24.144 47.7901C24.144 51.9187 27.5111 55.2791 31.6517 55.2791C35.7906 55.2791 39.1594 51.9204 39.1594 47.7901C39.1594 43.6598 35.7906 40.3011 31.6517 40.3011Z" fill="#F73E42"/>
<path d="M31.6518 40.3011C31.4934 40.3011 31.3316 40.2709 31.1749 40.207C30.5278 39.9431 30.2177 39.2084 30.4823 38.5629C33.4567 31.2908 30.3407 22.23 27.8381 16.8507C27.4 22.2098 25.3271 26.4376 23.406 29.287C20.6675 33.3517 17.6931 35.5236 17.5684 35.6144C17.0038 36.0229 16.2134 35.8968 15.8039 35.3337C15.3944 34.7705 15.5208 33.9821 16.0854 33.5736C16.1123 33.5534 18.8744 31.5228 21.3618 27.8026C24.6564 22.8755 25.9456 17.4575 25.1923 11.6966C25.1165 11.11 25.4569 10.5502 26.0147 10.3484C26.5708 10.1467 27.1944 10.3585 27.5129 10.8561C27.6191 11.0209 30.1216 14.9696 32.0512 20.4464C34.6481 27.811 34.9144 34.404 32.8247 39.5161C32.6225 40.0053 32.1489 40.3011 31.6518 40.3011Z" fill="#F73E42"/>
<path d="M20.4218 14.5056C19.8791 14.5056 19.3769 14.1543 19.2118 13.6097C19.0095 12.944 19.387 12.2396 20.0561 12.0379L32.1391 8.3934C32.8082 8.19168 33.5126 8.56823 33.7148 9.2356C33.917 9.90129 33.5396 10.6056 32.8705 10.8074L20.7875 14.4519C20.6661 14.4872 20.5431 14.5056 20.4218 14.5056Z" fill="#F73E42"/>
<path d="M72.0881 3.19397C71.3905 3.19397 70.8242 2.62914 70.8242 1.93319V1.26078C70.8242 0.564828 71.3905 0 72.0881 0C72.7858 0 73.3521 0.564828 73.3521 1.26078V1.93319C73.3521 2.62914 72.7858 3.19397 72.0881 3.19397Z" fill="#F73E42"/>
<path d="M72.0881 11.7673C71.3905 11.7673 70.8242 11.2024 70.8242 10.5065V10.0022C70.8242 9.30622 71.3905 8.74139 72.0881 8.74139C72.7858 8.74139 73.3521 9.30622 73.3521 10.0022V10.5065C73.3521 11.2024 72.7858 11.7673 72.0881 11.7673Z" fill="#F73E42"/>
<path d="M68.1275 7.14439H67.4534C66.7557 7.14439 66.1895 6.57956 66.1895 5.88361C66.1895 5.18766 66.7557 4.62283 67.4534 4.62283H68.1275C68.8252 4.62283 69.3914 5.18766 69.3914 5.88361C69.3914 6.57956 68.8252 7.14439 68.1275 7.14439Z" fill="#F73E42"/>
<path d="M76.7222 7.14439H76.0481C75.3504 7.14439 74.7842 6.57956 74.7842 5.88361C74.7842 5.18766 75.3504 4.62283 76.0481 4.62283H76.7222C77.4199 4.62283 77.9861 5.18766 77.9861 5.88361C77.9861 6.57956 77.4199 7.14439 76.7222 7.14439Z" fill="#F73E42"/>
<path d="M53.3811 17.9871C52.6834 17.9871 52.1172 17.4222 52.1172 16.7263V16.0539C52.1172 15.3579 52.6834 14.7931 53.3811 14.7931C54.0788 14.7931 54.645 15.3579 54.645 16.0539V16.7263C54.645 17.4222 54.0788 17.9871 53.3811 17.9871Z" fill="#F73E42"/>
<path d="M53.3811 24.2069C52.6834 24.2069 52.1172 23.6421 52.1172 22.9461V22.778C52.1172 22.0821 52.6834 21.5172 53.3811 21.5172C54.0788 21.5172 54.645 22.0821 54.645 22.778V22.9461C54.645 23.6421 54.0788 24.2069 53.3811 24.2069Z" fill="#F73E42"/>
<path d="M50.6005 20.7607H50.095C49.3973 20.7607 48.8311 20.1959 48.8311 19.5C48.8311 18.804 49.3973 18.2392 50.095 18.2392H50.6005C51.2982 18.2392 51.8645 18.804 51.8645 19.5C51.8645 20.1959 51.2982 20.7607 50.6005 20.7607Z" fill="#F73E42"/>
<path d="M56.8359 20.7607H56.3303C55.6326 20.7607 55.0664 20.1959 55.0664 19.5C55.0664 18.804 55.6326 18.2392 56.3303 18.2392H56.8359C57.5336 18.2392 58.0998 18.804 58.0998 19.5C58.0998 20.1959 57.5336 20.7607 56.8359 20.7607Z" fill="#F73E42"/>
<path d="M67.5374 70.4353C66.8397 70.4353 66.2734 69.8705 66.2734 69.1746V68.6703C66.2734 67.9743 66.8397 67.4095 67.5374 67.4095C68.235 67.4095 68.8013 67.9743 68.8013 68.6703V69.1746C68.8013 69.8705 68.235 70.4353 67.5374 70.4353Z" fill="#F73E42"/>
<path d="M67.5374 76.6552C66.8397 76.6552 66.2734 76.0903 66.2734 75.3944V75.2263C66.2734 74.5303 66.8397 73.9655 67.5374 73.9655C68.235 73.9655 68.8013 74.5303 68.8013 75.2263V75.3944C68.8013 76.0903 68.235 76.6552 67.5374 76.6552Z" fill="#F73E42"/>
<path d="M64.5878 73.3771H64.0823C63.3846 73.3771 62.8184 72.8123 62.8184 72.1164C62.8184 71.4204 63.3846 70.8556 64.0823 70.8556H64.5878C65.2855 70.8556 65.8518 71.4204 65.8518 72.1164C65.8518 72.8123 65.2855 73.3771 64.5878 73.3771Z" fill="#F73E42"/>
<path d="M70.8232 73.3771H70.3176C69.6199 73.3771 69.0537 72.8123 69.0537 72.1164C69.0537 71.4204 69.6199 70.8556 70.3176 70.8556H70.8232C71.5209 70.8556 72.0871 71.4204 72.0871 72.1164C72.0871 72.8123 71.5209 73.3771 70.8232 73.3771Z" fill="#F73E42"/>
<path d="M8.21802 69.4267C7.52034 69.4267 6.9541 68.8619 6.9541 68.166V67.3254C6.9541 66.6295 7.52034 66.0647 8.21802 66.0647C8.9157 66.0647 9.48194 66.6295 9.48194 67.3254V68.166C9.48194 68.8619 8.9157 69.4267 8.21802 69.4267Z" fill="#F73E42"/>
<path d="M8.21802 78C7.52034 78 6.9541 77.4352 6.9541 76.7392V76.0668C6.9541 75.3709 7.52034 74.806 8.21802 74.806C8.9157 74.806 9.48194 75.3709 9.48194 76.0668V76.7392C9.48194 77.4352 8.9157 78 8.21802 78Z" fill="#F73E42"/>
<path d="M4.25734 73.3772H3.58325C2.88557 73.3772 2.31934 72.8123 2.31934 72.1164C2.31934 71.4204 2.88557 70.8556 3.58325 70.8556H4.25734C4.95503 70.8556 5.52126 71.4204 5.52126 72.1164C5.52126 72.8123 4.95503 73.3772 4.25734 73.3772Z" fill="#F73E42"/>
<path d="M12.8521 73.3772H12.178C11.4803 73.3772 10.9141 72.8123 10.9141 72.1164C10.9141 71.4204 11.4803 70.8556 12.178 70.8556H12.8521C13.5498 70.8556 14.116 71.4204 14.116 72.1164C14.116 72.8123 13.5498 73.3772 12.8521 73.3772Z" fill="#F73E42"/>
<path d="M24.8956 71.0556C22.8733 71.0556 21.2285 69.4149 21.2285 67.3977C21.2285 65.3804 22.8733 63.7397 24.8956 63.7397C26.9178 63.7397 28.5626 65.3804 28.5626 67.3977C28.5626 69.4149 26.9162 71.0556 24.8956 71.0556ZM24.8956 66.263C24.267 66.263 23.7564 66.7723 23.7564 67.3994C23.7564 68.0264 24.267 68.5357 24.8956 68.5357C25.5242 68.5357 26.0348 68.0264 26.0348 67.3994C26.0331 66.7723 25.5225 66.263 24.8956 66.263Z" fill="#F73E42"/>
<path d="M47.6143 8.01349C45.592 8.01349 43.9473 6.3728 43.9473 4.35556C43.9473 2.33832 45.592 0.697632 47.6143 0.697632C49.6366 0.697632 51.2814 2.33832 51.2814 4.35556C51.2814 6.37449 49.6366 8.01349 47.6143 8.01349ZM47.6143 3.22086C46.9857 3.22086 46.4751 3.73022 46.4751 4.35724C46.4751 4.98427 46.9857 5.49362 47.6143 5.49362C48.2429 5.49362 48.7535 4.98427 48.7535 4.35724C48.7535 3.73022 48.2429 3.22086 47.6143 3.22086Z" fill="#F73E42"/>
</svg>
