<svg width="67" height="67" viewBox="0 0 67 67" fill="none" xmlns="http://www.w3.org/2000/svg">
<g clip-path="url(#clip0)">
<path d="M43.8643 60.5536C43.8629 60.5536 43.8629 60.5536 43.8615 60.5536C43.5542 60.5536 43.2625 60.4529 43.0605 60.2216L33.3381 49.0999C32.9511 48.6572 32.9981 47.993 33.442 47.607C33.8858 47.221 34.5602 47.2721 34.9471 47.7149L43.87 57.9382L64.167 34.9613L57.2216 27.9196L31.86 27.9083C31.271 27.9083 30.793 27.4343 30.793 26.8468C30.793 26.2593 31.271 25.7853 31.86 25.7853L57.6683 25.7938C57.9543 25.7938 58.2274 25.9073 58.428 26.1103L66.3835 34.1765C66.7761 34.5739 66.7932 35.2068 66.4233 35.6269L44.6653 60.2258C44.4618 60.4557 44.1702 60.5536 43.8643 60.5536Z" fill="#F73E42"/>
<path d="M65.6207 36.0023H36.7408C36.1518 36.0023 35.6738 35.5254 35.6738 34.9379C35.6738 34.3504 36.1518 33.8736 36.7408 33.8736H65.6207C66.2097 33.8736 66.6877 34.3504 66.6877 34.9379C66.6877 35.5254 66.2097 36.0023 65.6207 36.0023Z" fill="#F73E42"/>
<path d="M51.9245 51.4862C51.5375 51.4862 51.1633 51.2748 50.9741 50.9072L43.9676 37.2823L36.8358 50.9143C36.5627 51.4352 35.9182 51.6367 35.3961 51.3656C34.874 51.0932 34.6705 50.4503 34.9437 49.9295L43.03 34.4597C43.2136 34.1078 43.5792 33.8736 43.9761 33.8736C43.9775 33.8736 43.979 33.8736 43.9804 33.8736C44.3787 33.8736 44.7443 34.112 44.9264 34.4668L52.8748 49.9295C53.1437 50.4531 52.9374 51.0974 52.4124 51.3656C52.2545 51.4451 52.0881 51.4862 51.9245 51.4862Z" fill="#F73E42"/>
<path d="M43.974 36.0306C43.7663 36.0306 43.5586 35.9696 43.3794 35.8504L31.2541 27.7288C30.7647 27.401 30.6352 26.7397 30.9639 26.2515C31.2925 25.7633 31.9554 25.6342 32.4448 25.962L44.0096 33.709L57.1236 25.9209C57.6301 25.62 58.2845 25.786 58.5861 26.2912C58.8877 26.7964 58.7213 27.4492 58.2148 27.7501L44.5203 35.883C44.351 35.981 44.1618 36.0306 43.974 36.0306Z" fill="#F73E42"/>
<path d="M8.47093 42.6397C3.79893 42.6397 -0.000976562 38.8492 -0.000976562 34.1889C-0.000976562 29.5285 3.79893 25.738 8.47093 25.738C13.1429 25.738 16.9428 29.5285 16.9428 34.1889C16.9428 38.8492 13.1429 42.6397 8.47093 42.6397ZM8.47093 27.8667C4.97547 27.8667 2.13301 30.7035 2.13301 34.1889C2.13301 37.6742 4.97547 40.511 8.47093 40.511C11.965 40.511 14.8089 37.6742 14.8089 34.1889C14.8089 30.7035 11.965 27.8667 8.47093 27.8667Z" fill="#F73E42"/>
<path d="M26.72 49.1066C22.048 49.1066 18.248 45.3161 18.248 40.6557C18.248 35.9954 22.048 32.2049 26.72 32.2049C31.3919 32.2049 35.1919 35.9954 35.1919 40.6557C35.1919 45.3147 31.3905 49.1066 26.72 49.1066ZM26.72 34.3336C23.2259 34.3336 20.382 37.1704 20.382 40.6557C20.382 44.1411 23.2245 46.9779 26.72 46.9779C30.214 46.9779 33.0579 44.1425 33.0579 40.6557C33.0579 37.169 30.214 34.3336 26.72 34.3336Z" fill="#F73E42"/>
<path d="M26.7203 34.3335C26.5866 34.3335 26.45 34.308 26.3177 34.2541C25.7714 34.0313 25.5096 33.4111 25.733 32.8662C28.244 26.7271 25.6135 19.078 23.5008 14.5369C23.1309 19.061 21.3811 22.6301 19.7593 25.0355C17.4474 28.4669 14.9365 30.3004 14.8312 30.377C14.3546 30.7219 13.6874 30.6155 13.3417 30.1401C12.996 29.6646 13.1027 28.9991 13.5792 28.6542C13.602 28.6372 15.9337 26.9229 18.0336 23.7824C20.8149 19.623 21.9032 15.0492 21.2673 10.1859C21.2033 9.69059 21.4906 9.21802 21.9615 9.04773C22.431 8.87743 22.9574 9.05624 23.2263 9.4763C23.3159 9.61537 25.4285 12.9489 27.0575 17.5724C29.2498 23.7895 29.4746 29.3553 27.7105 33.6708C27.5398 34.0838 27.14 34.3335 26.7203 34.3335Z" fill="#F73E42"/>
<path d="M17.2394 12.5572C16.7813 12.5572 16.3573 12.2606 16.2179 11.8008C16.0472 11.2388 16.3659 10.6442 16.9307 10.4739L27.1311 7.39725C27.6959 7.22696 28.2906 7.54484 28.4613 8.10823C28.632 8.6702 28.3133 9.26481 27.7485 9.4351L17.5481 12.5117C17.4457 12.5416 17.3418 12.5572 17.2394 12.5572Z" fill="#F73E42"/>
<path d="M60.8551 3.00778C60.2661 3.00778 59.7881 2.53096 59.7881 1.94345V1.3758C59.7881 0.788285 60.2661 0.311462 60.8551 0.311462C61.4441 0.311462 61.9221 0.788285 61.9221 1.3758V1.94345C61.9221 2.53096 61.4441 3.00778 60.8551 3.00778Z" fill="#F73E42"/>
<path d="M60.8551 10.2453C60.2661 10.2453 59.7881 9.76847 59.7881 9.18096V8.75522C59.7881 8.16771 60.2661 7.69089 60.8551 7.69089C61.4441 7.69089 61.9221 8.16771 61.9221 8.75522V9.18096C61.9221 9.76847 61.4441 10.2453 60.8551 10.2453Z" fill="#F73E42"/>
<path d="M57.5111 6.34266H56.942C56.353 6.34266 55.875 5.86584 55.875 5.27833C55.875 4.69081 56.353 4.21399 56.942 4.21399H57.5111C58.1 4.21399 58.578 4.69081 58.578 5.27833C58.578 5.86584 58.1 6.34266 57.5111 6.34266Z" fill="#F73E42"/>
<path d="M64.7679 6.34266H64.1988C63.6098 6.34266 63.1318 5.86584 63.1318 5.27833C63.1318 4.69081 63.6098 4.21399 64.1988 4.21399H64.7679C65.3569 4.21399 65.8349 4.69081 65.8349 5.27833C65.8349 5.86584 65.3569 6.34266 64.7679 6.34266Z" fill="#F73E42"/>
<path d="M45.0641 15.496C44.4751 15.496 43.9971 15.0192 43.9971 14.4317V13.864C43.9971 13.2765 44.4751 12.7997 45.0641 12.7997C45.653 12.7997 46.131 13.2765 46.131 13.864V14.4317C46.131 15.0192 45.653 15.496 45.0641 15.496Z" fill="#F73E42"/>
<path d="M45.065 20.7468C44.4761 20.7468 43.998 20.27 43.998 19.6824V19.5405C43.998 18.953 44.4761 18.4762 45.065 18.4762C45.654 18.4762 46.132 18.953 46.132 19.5405V19.6824C46.132 20.27 45.654 20.7468 45.065 20.7468Z" fill="#F73E42"/>
<path d="M42.7164 17.8375H42.2896C41.7007 17.8375 41.2227 17.3607 41.2227 16.7732C41.2227 16.1857 41.7007 15.7089 42.2896 15.7089H42.7164C43.3054 15.7089 43.7834 16.1857 43.7834 16.7732C43.7834 17.3607 43.3054 17.8375 42.7164 17.8375Z" fill="#F73E42"/>
<path d="M47.9801 17.8375H47.5533C46.9643 17.8375 46.4863 17.3607 46.4863 16.7732C46.4863 16.1857 46.9643 15.7089 47.5533 15.7089H47.9801C48.5691 15.7089 49.0471 16.1857 49.0471 16.7732C49.0471 17.3607 48.5691 17.8375 47.9801 17.8375Z" fill="#F73E42"/>
<path d="M57.0152 59.7724C56.4263 59.7724 55.9482 59.2956 55.9482 58.7081V58.2824C55.9482 57.6948 56.4263 57.218 57.0152 57.218C57.6042 57.218 58.0822 57.6948 58.0822 58.2824V58.7081C58.0822 59.2956 57.6042 59.7724 57.0152 59.7724Z" fill="#F73E42"/>
<path d="M57.0152 65.0232C56.4263 65.0232 55.9482 64.5464 55.9482 63.9589V63.817C55.9482 63.2295 56.4263 62.7527 57.0152 62.7527C57.6042 62.7527 58.0822 63.2295 58.0822 63.817V63.9589C58.0822 64.5464 57.6042 65.0232 57.0152 65.0232Z" fill="#F73E42"/>
<path d="M54.525 62.2559H54.0982C53.5093 62.2559 53.0312 61.779 53.0312 61.1915C53.0312 60.604 53.5093 60.1272 54.0982 60.1272H54.525C55.114 60.1272 55.592 60.604 55.592 61.1915C55.592 61.779 55.114 62.2559 54.525 62.2559Z" fill="#F73E42"/>
<path d="M59.7887 62.2559H59.3619C58.7729 62.2559 58.2949 61.779 58.2949 61.1915C58.2949 60.604 58.7729 60.1272 59.3619 60.1272H59.7887C60.3777 60.1272 60.8557 60.604 60.8557 61.1915C60.8557 61.779 60.3777 62.2559 59.7887 62.2559Z" fill="#F73E42"/>
<path d="M6.93906 58.9211C6.35008 58.9211 5.87207 58.4443 5.87207 57.8568V57.1472C5.87207 56.5597 6.35008 56.0829 6.93906 56.0829C7.52804 56.0829 8.00605 56.5597 8.00605 57.1472V57.8568C8.00605 58.4443 7.52804 58.9211 6.93906 58.9211Z" fill="#F73E42"/>
<path d="M6.93906 66.1586C6.35008 66.1586 5.87207 65.6818 5.87207 65.0943V64.5266C5.87207 63.9391 6.35008 63.4623 6.93906 63.4623C7.52804 63.4623 8.00605 63.9391 8.00605 64.5266V65.0943C8.00605 65.6818 7.52804 66.1586 6.93906 66.1586Z" fill="#F73E42"/>
<path d="M3.59504 62.2561H3.02597C2.437 62.2561 1.95898 61.7792 1.95898 61.1917C1.95898 60.6042 2.437 60.1274 3.02597 60.1274H3.59504C4.18401 60.1274 4.66203 60.6042 4.66203 61.1917C4.66203 61.7792 4.18401 62.2561 3.59504 62.2561Z" fill="#F73E42"/>
<path d="M10.8519 62.2561H10.2828C9.69383 62.2561 9.21582 61.7792 9.21582 61.1917C9.21582 60.6042 9.69383 60.1274 10.2828 60.1274H10.8519C11.4409 60.1274 11.9189 60.6042 11.9189 61.1917C11.9189 61.7792 11.4409 62.2561 10.8519 62.2561Z" fill="#F73E42"/>
<path d="M21.0146 60.2961C19.3075 60.2961 17.9189 58.9111 17.9189 57.2081C17.9189 55.5052 19.3075 54.1201 21.0146 54.1201C22.7218 54.1201 24.1103 55.5052 24.1103 57.2081C24.1103 58.9111 22.7204 60.2961 21.0146 60.2961ZM21.0146 56.2502C20.484 56.2502 20.0529 56.6802 20.0529 57.2095C20.0529 57.7389 20.484 58.1689 21.0146 58.1689C21.5453 58.1689 21.9764 57.7389 21.9764 57.2095C21.9749 56.6802 21.5439 56.2502 21.0146 56.2502Z" fill="#F73E42"/>
<path d="M40.1943 7.07638C38.4871 7.07638 37.0986 5.69133 37.0986 3.98839C37.0986 2.28545 38.4871 0.900391 40.1943 0.900391C41.9015 0.900391 43.29 2.28545 43.29 3.98839C43.29 5.69275 41.9015 7.07638 40.1943 7.07638ZM40.1943 3.03048C39.6637 3.03048 39.2326 3.46048 39.2326 3.98981C39.2326 4.51914 39.6637 4.94913 40.1943 4.94913C40.725 4.94913 41.156 4.51914 41.156 3.98981C41.156 3.46048 40.725 3.03048 40.1943 3.03048Z" fill="#F73E42"/>
</g>
<defs>
<clipPath id="clip0">
<rect width="66.6912" height="65.847" fill="white" transform="translate(0 0.311523)"/>
</clipPath>
</defs>
</svg>
