<svg width="19" height="11" viewBox="0 0 19 11" fill="none" xmlns="http://www.w3.org/2000/svg">
<path d="M9.85407 10.0054C9.55003 10.006 9.25538 9.90014 9.02127 9.70615L1.21373 3.19987C0.947996 2.979 0.780883 2.66161 0.749159 2.31752C0.717434 1.97343 0.823697 1.63084 1.04457 1.3651C1.26544 1.09936 1.58284 0.93225 1.92692 0.900526C2.27101 0.868802 2.6136 0.975064 2.87934 1.19594L9.85407 7.02556L16.8288 1.40414C16.9619 1.29605 17.1151 1.21533 17.2795 1.16662C17.4439 1.11791 17.6163 1.10218 17.7868 1.12031C17.9573 1.13845 18.1225 1.19011 18.273 1.27231C18.4234 1.35452 18.5562 1.46565 18.6636 1.59933C18.7827 1.73312 18.873 1.89009 18.9287 2.06039C18.9844 2.23069 19.0043 2.41065 18.9872 2.58901C18.9701 2.76736 18.9163 2.94026 18.8293 3.09688C18.7423 3.25349 18.6238 3.39045 18.4814 3.49916L10.6739 9.78422C10.433 9.94755 10.1444 10.0254 9.85407 10.0054Z" fill="#F73E42"/>
</svg>
