<svg width="107" height="72" viewBox="0 0 107 72" fill="none" xmlns="http://www.w3.org/2000/svg">
<path d="M30.3326 71.1712C29.3426 71.1712 28.5391 70.3679 28.5391 69.3782V1.79303C28.5391 0.803276 29.3426 0 30.3326 0H77.2276C78.2177 0 79.0212 0.803276 79.0212 1.79303V61.0705C79.0212 62.0602 78.2177 62.8635 77.2276 62.8635C76.2376 62.8635 75.4341 62.0602 75.4341 61.0705V3.58605H32.1261V69.3782C32.1261 70.3679 31.3226 71.1712 30.3326 71.1712Z" fill="#F73E42"/>
<path d="M24.1671 65.2901C23.3684 65.2901 22.639 64.7522 22.431 63.9417L10.4191 17.1175C10.2995 16.6489 10.3736 16.1492 10.6271 15.7356C10.8806 15.3221 11.2895 15.028 11.763 14.9228L23.7749 12.2165C24.7411 11.999 25.7024 12.6062 25.9176 13.5721C26.1352 14.5379 25.5278 15.4966 24.5617 15.7141L14.3529 18.014L25.9057 63.05C26.152 64.0087 25.5733 64.9865 24.6143 65.2327C24.4637 65.271 24.3154 65.2901 24.1671 65.2901Z" fill="#F73E42"/>
<path d="M17.9043 66.0216C17.2539 66.0216 16.6249 65.6654 16.3069 65.0486L0.198537 33.7113C-0.0190793 33.2881 -0.0597328 32.7956 0.0861415 32.3438C0.232016 31.892 0.55007 31.5142 0.973344 31.2967L7.47312 27.9569C8.35315 27.5026 9.43644 27.8517 9.88842 28.7315C10.3404 29.6112 9.99364 30.6942 9.11361 31.1461L4.20888 33.6659L19.497 63.4086C19.949 64.2884 19.6022 65.3713 18.7222 65.8232C18.4591 65.9595 18.1793 66.0216 17.9043 66.0216Z" fill="#F73E42"/>
<path d="M84.9324 57.1068C84.7841 57.1068 84.6359 57.0876 84.4852 57.0494C83.5263 56.8031 82.9476 55.8253 83.1939 54.8667L92.647 18.014L82.4382 15.7141C81.4721 15.4966 80.8647 14.5379 81.0823 13.5721C81.2999 12.6062 82.2588 11.999 83.2249 12.2165L95.2368 14.9228C95.7103 15.0304 96.1193 15.3221 96.3728 15.7357C96.6262 16.1492 96.7004 16.6465 96.5808 17.1175L86.6685 55.7584C86.4605 56.5665 85.7311 57.1068 84.9324 57.1068Z" fill="#F73E42"/>
<path d="M88.3096 67.5541C88.0346 67.5541 87.7548 67.4895 87.4917 67.3557C86.6117 66.9038 86.2626 65.8232 86.7169 64.9411L102.792 33.6683L97.8871 31.1485C97.007 30.6967 96.6579 29.6161 97.1123 28.7339C97.5642 27.8541 98.6475 27.5051 99.5276 27.9593L106.027 31.2991C106.451 31.5167 106.771 31.892 106.915 32.3462C107.06 32.7981 107.02 33.2906 106.802 33.7137L89.907 66.5811C89.589 67.1979 88.96 67.5541 88.3096 67.5541Z" fill="#F73E42"/>
<path d="M62.6852 43.3099L56.2094 24.3684C56.0707 23.9644 55.6905 23.7229 55.2648 23.7229H52.309C51.881 23.7229 51.5008 23.9668 51.3644 24.3708L44.9173 43.3267C44.8145 43.6303 44.8623 44.0247 45.0512 44.2853C45.2377 44.5459 45.5414 44.7587 45.8619 44.7587H48.3967C48.8272 44.7587 49.2098 44.4766 49.3437 44.0678L51.087 38.7819H56.3792L58.1751 44.0773C58.3114 44.4814 58.694 44.7587 59.1197 44.7587H61.7383C62.0611 44.7587 62.3624 44.5387 62.5513 44.2758C62.7402 44.0152 62.7905 43.6159 62.6852 43.3099ZM53.6841 30.5484C53.6984 30.5053 53.7128 30.4695 53.7247 30.4264C53.7439 30.4862 53.7654 30.534 53.7845 30.5938L55.193 34.7225H52.2636L53.6841 30.5484Z" fill="#F73E42"/>
<path fill-rule="evenodd" clip-rule="evenodd" d="M40.2971 8.70442C39.1277 5.97902 35.7989 6.61495 35.7774 9.77785C35.7655 11.5159 37.229 12.2976 38.2908 12.9933C39.3214 13.6675 40.1895 14.4541 40.3043 14.8485C40.4023 14.4636 41.3541 13.6245 42.3083 12.9479C43.3509 12.2116 44.8336 11.4968 44.8216 9.75872C44.8001 6.58626 41.4139 6.0866 40.2971 8.70442Z" fill="#F73E42"/>
</svg>
