<svg width="166" height="65" viewBox="0 0 166 65" fill="none" xmlns="http://www.w3.org/2000/svg">
<path d="M165.343 35.392H0.655273L7.3004 18.096L0.655273 0.799988H165.343L158.705 18.096L165.343 35.392Z" fill="white"/>
<path d="M35.3685 22.3086C35.2608 24.7467 34.5754 26.5924 33.3123 27.8458C32.0491 29.0991 30.2671 29.7258 27.966 29.7258C25.5475 29.7258 23.692 28.9326 22.3995 27.3464C21.1167 25.7503 20.4754 23.4787 20.4754 20.5314V16.9329C20.4754 13.9954 21.1412 11.7336 22.4729 10.1473C23.8046 8.55128 25.6552 7.75326 28.0248 7.75326C30.3552 7.75326 32.1226 8.4044 33.327 9.70669C34.5411 11.009 35.2314 12.8792 35.3979 15.3173H31.0651C31.0259 13.8094 30.7909 12.7715 30.3601 12.2036C29.939 11.6259 29.1606 11.337 28.0248 11.337C26.8693 11.337 26.0517 11.7434 25.572 12.5561C25.0922 13.359 24.8376 14.6858 24.8082 16.5364V20.5754C24.8082 22.7002 25.0432 24.1592 25.5132 24.9523C25.993 25.7454 26.8106 26.142 27.966 26.142C29.1018 26.142 29.8852 25.8678 30.316 25.3195C30.7468 24.7614 30.9916 23.7577 31.0504 22.3086H35.3685ZM48.2348 25.0551H42.3451L41.1995 29.432H36.6316L43.3145 8.04701H47.2654L53.9923 29.432H49.3804L48.2348 25.0551ZM43.2851 21.4567H47.2801L45.2826 13.8339L43.2851 21.4567ZM70.9563 29.432H66.6382L60.3226 15.4054V29.432H56.0045V8.04701H60.3226L66.6529 22.0883V8.04701H70.9563V29.432ZM84.8948 25.0551H79.0051L77.8595 29.432H73.2916L79.9745 8.04701H83.9254L90.6523 29.432H86.0404L84.8948 25.0551ZM79.9451 21.4567H83.9401L81.9426 13.8339L79.9451 21.4567ZM92.6645 29.432V8.04701H98.3191C100.816 8.04701 102.804 8.84013 104.282 10.4264C105.771 12.0126 106.529 14.1864 106.559 16.9476V20.4139C106.559 23.2241 105.815 25.4321 104.326 27.0379C102.848 28.634 100.806 29.432 98.2016 29.432H92.6645ZM96.9826 11.6454V25.8483H98.2751C99.7145 25.8483 100.728 25.4713 101.315 24.7173C101.903 23.9536 102.211 22.6415 102.241 20.7811V17.0651C102.241 15.0676 101.962 13.6772 101.404 12.8939C100.845 12.1008 99.8956 11.6846 98.5541 11.6454H96.9826ZM119.557 25.0551H113.668L112.522 29.432H107.954L114.637 8.04701H118.588L125.315 29.432H120.703L119.557 25.0551ZM114.608 21.4567H118.603L116.605 13.8339L114.608 21.4567ZM126.739 14.6123L124.83 13.452C125.525 12.0714 125.888 10.7299 125.917 9.42763V6.87201H129.178V9.19263C129.168 10.0837 128.933 11.0482 128.473 12.0861C128.022 13.1142 127.444 13.9563 126.739 14.6123ZM141.354 23.8214C141.354 22.9499 141.128 22.2939 140.678 21.8533C140.237 21.4028 139.429 20.9377 138.254 20.4579C136.11 19.6452 134.568 18.6954 133.628 17.6086C132.688 16.5119 132.218 15.2194 132.218 13.7311C132.218 11.9294 132.854 10.4851 134.127 9.39826C135.41 8.30159 137.035 7.75326 139.004 7.75326C140.316 7.75326 141.486 8.03232 142.514 8.59044C143.542 9.13878 144.33 9.91721 144.879 10.9258C145.437 11.9343 145.716 13.0799 145.716 14.3626H141.412C141.412 13.3639 141.197 12.605 140.766 12.0861C140.345 11.5573 139.733 11.2929 138.93 11.2929C138.176 11.2929 137.589 11.5182 137.168 11.9686C136.747 12.4092 136.536 13.0065 136.536 13.7604C136.536 14.3479 136.771 14.8816 137.241 15.3614C137.711 15.8314 138.543 16.321 139.738 16.8301C141.824 17.5841 143.336 18.5094 144.276 19.6061C145.226 20.7027 145.701 22.098 145.701 23.792C145.701 25.6524 145.109 27.1065 143.924 28.1542C142.739 29.2019 141.128 29.7258 139.092 29.7258C137.711 29.7258 136.453 29.4418 135.317 28.8739C134.181 28.306 133.29 27.4933 132.644 26.4358C132.007 25.3783 131.689 24.1298 131.689 22.6904H136.022C136.022 23.9242 136.262 24.8201 136.742 25.3783C137.221 25.9364 138.005 26.2154 139.092 26.2154C140.6 26.2154 141.354 25.4174 141.354 23.8214Z" fill="#F73E42"/>
<path d="M45.3375 52.6868C45.2494 54.4052 44.7647 55.7198 43.8834 56.6304C43.0095 57.541 41.7721 57.9963 40.1712 57.9963C38.5629 57.9963 37.2851 57.3868 36.3377 56.1677C35.3904 54.9413 34.9167 53.2816 34.9167 51.1887V48.2805C34.9167 46.1949 35.4014 44.5462 36.3708 43.3345C37.3475 42.1228 38.6767 41.5169 40.3584 41.5169C41.908 41.5169 43.105 41.9833 43.9495 42.9159C44.8014 43.8412 45.2641 45.1668 45.3375 46.8926H43.2996C43.2115 45.5854 42.9361 44.6527 42.4734 44.0946C42.0108 43.5365 41.3058 43.2574 40.3584 43.2574C39.2642 43.2574 38.4234 43.687 37.8359 44.5462C37.2484 45.3981 36.9546 46.6502 36.9546 48.3026V51.2437C36.9546 52.8667 37.2263 54.1115 37.7698 54.978C38.3205 55.8446 39.121 56.2779 40.1712 56.2779C41.2213 56.2779 41.9777 56.0172 42.4404 55.4958C42.903 54.9744 43.1894 54.038 43.2996 52.6868H45.3375ZM58.38 53.5901H52.9603L51.7155 57.776H49.6446L54.8109 41.7373H56.5404L61.7177 57.776H59.6468L58.38 53.5901ZM53.4891 51.8496H57.8623L55.6702 44.5573L53.4891 51.8496ZM73.7248 53.7223C73.7248 52.9218 73.5081 52.3086 73.0748 51.8826C72.6416 51.4567 71.8595 51.0418 70.7285 50.6379C69.5976 50.234 68.731 49.8117 68.1288 49.3711C67.534 48.9231 67.086 48.4164 66.7849 47.8509C66.4912 47.2781 66.3443 46.6245 66.3443 45.8901C66.3443 44.6197 66.7666 43.5732 67.6111 42.7507C68.463 41.9282 69.5755 41.5169 70.9488 41.5169C71.8888 41.5169 72.726 41.7299 73.4604 42.1558C74.1948 42.5744 74.7602 43.1583 75.1568 43.9073C75.5534 44.6564 75.7516 45.4789 75.7516 46.3748H73.7248C73.7248 45.3834 73.4861 44.616 73.0087 44.0726C72.5314 43.5291 71.8448 43.2574 70.9488 43.2574C70.1337 43.2574 69.5021 43.4851 69.0541 43.9404C68.6062 44.3957 68.3822 45.0346 68.3822 45.8571C68.3822 46.5327 68.6245 47.0982 69.1092 47.5535C69.5939 48.0088 70.343 48.4164 71.3564 48.7762C72.9353 49.2976 74.0626 49.9402 74.7382 50.704C75.4212 51.4677 75.7627 52.4665 75.7627 53.7002C75.7627 55.0001 75.3404 56.0429 74.4959 56.8287C73.6513 57.6071 72.502 57.9963 71.048 57.9963C70.1153 57.9963 69.2524 57.7944 68.4593 57.3905C67.6735 56.9792 67.053 56.4064 66.5977 55.672C66.1497 54.9303 65.9257 54.0821 65.9257 53.1274H67.9526C67.9526 54.1188 68.228 54.8899 68.7787 55.4407C69.3369 55.9915 70.0933 56.2669 71.048 56.2669C71.9366 56.2669 72.6048 56.0392 73.0528 55.5839C73.5008 55.1286 73.7248 54.508 73.7248 53.7223ZM83.3414 57.776H81.3255V41.7373H83.3414V57.776ZM100.173 57.776H98.1464L91.7243 45.4165V57.776H89.6974V41.7373H91.7243L98.1684 54.1519V41.7373H100.173V57.776ZM116.917 51.1666C116.917 53.3551 116.451 55.0405 115.518 56.2228C114.585 57.4051 113.26 57.9963 111.541 57.9963C109.889 57.9963 108.582 57.4235 107.62 56.2779C106.665 55.1249 106.169 53.4983 106.133 51.398V48.3797C106.133 46.2353 106.606 44.5573 107.554 43.3455C108.501 42.1265 109.823 41.5169 111.519 41.5169C113.208 41.5169 114.523 42.1008 115.463 43.2684C116.41 44.4287 116.895 46.0884 116.917 48.2475V51.1666ZM114.901 48.3576C114.901 46.6612 114.622 45.4018 114.064 44.5793C113.513 43.7494 112.665 43.3345 111.519 43.3345C110.41 43.3345 109.57 43.7531 108.997 44.5903C108.431 45.4275 108.145 46.6612 108.138 48.2915V51.1666C108.138 52.8043 108.42 54.0527 108.986 54.9119C109.559 55.7712 110.41 56.2008 111.541 56.2008C112.672 56.2008 113.51 55.8042 114.053 55.0111C114.596 54.218 114.879 53.0026 114.901 51.3649V48.3576ZM129.86 53.7223C129.86 52.9218 129.644 52.3086 129.21 51.8826C128.777 51.4567 127.995 51.0418 126.864 50.6379C125.733 50.234 124.867 49.8117 124.264 49.3711C123.67 48.9231 123.222 48.4164 122.921 47.8509C122.627 47.2781 122.48 46.6245 122.48 45.8901C122.48 44.6197 122.902 43.5732 123.747 42.7507C124.599 41.9282 125.711 41.5169 127.084 41.5169C128.024 41.5169 128.862 41.7299 129.596 42.1558C130.33 42.5744 130.896 43.1583 131.292 43.9073C131.689 44.6564 131.887 45.4789 131.887 46.3748H129.86C129.86 45.3834 129.622 44.616 129.144 44.0726C128.667 43.5291 127.98 43.2574 127.084 43.2574C126.269 43.2574 125.638 43.4851 125.19 43.9404C124.742 44.3957 124.518 45.0346 124.518 45.8571C124.518 46.5327 124.76 47.0982 125.245 47.5535C125.73 48.0088 126.479 48.4164 127.492 48.7762C129.071 49.2976 130.198 49.9402 130.874 50.704C131.557 51.4677 131.898 52.4665 131.898 53.7002C131.898 55.0001 131.476 56.0429 130.631 56.8287C129.787 57.6071 128.638 57.9963 127.184 57.9963C126.251 57.9963 125.388 57.7944 124.595 57.3905C123.809 56.9792 123.189 56.4064 122.733 55.672C122.285 54.9303 122.061 54.0821 122.061 53.1274H124.088C124.088 54.1188 124.364 54.8899 124.914 55.4407C125.473 55.9915 126.229 56.2669 127.184 56.2669C128.072 56.2669 128.74 56.0392 129.188 55.5839C129.636 55.1286 129.86 54.508 129.86 53.7223Z" fill="black"/>
<path fill-rule="evenodd" clip-rule="evenodd" d="M155.878 52.7212L158.384 55.696L158.662 55.0775C158.775 54.7967 158.941 54.9106 159.328 54.9676L160.998 55.4722L160.663 53.7345C160.607 53.5636 160.72 53.4537 160.829 53.3967L161.664 53.1729L160.05 51.8259C159.772 51.598 159.772 51.2073 160.385 51.3742L163.612 51.9358L163.169 51.1463C163.056 50.9225 163.282 50.5847 163.282 50.5847L165.343 49.5185L163.282 48.3953C163.06 48.2813 163.06 48.0575 163.169 47.8337L163.612 47.0483L160.385 47.6668C159.772 47.7808 159.772 47.386 160.05 47.1581L161.664 45.8111L160.829 45.5873C160.716 45.5873 160.607 45.4734 160.663 45.3065L160.998 43.5648L159.328 44.0124C158.941 44.1263 158.771 44.1793 158.662 43.8985L158.38 43.288L155.874 46.2629C155.761 46.3768 155.596 46.4297 155.426 46.4297L154.535 46.1489C154.757 48.1715 154.926 48.786 154.979 49.2377H139.337V49.7464H154.979C154.922 50.194 154.757 50.8126 154.535 52.8351L155.426 52.6113C155.596 52.5543 155.765 52.6113 155.878 52.7212ZM10.1767 52.7212L7.67126 55.696L7.33639 55.0775C7.22343 54.7967 7.1145 54.9106 6.72315 54.9676L4.99639 55.4722L5.3837 53.7345C5.3837 53.5636 5.27073 53.4537 5.1618 53.3967L4.38314 53.1729L5.94046 51.8259C6.21884 51.598 6.21884 51.2073 5.6056 51.3742L2.378 51.9358L2.8218 51.1463C2.93476 50.9225 2.76531 50.5847 2.76531 50.5847L0.655273 49.5185L2.76935 48.3953C2.99124 48.2813 2.93476 48.0575 2.82583 47.8337L2.38204 47.0483L5.60963 47.6668C6.22287 47.7808 6.22287 47.386 5.94449 47.1581L4.38718 45.8152L5.16584 45.5914C5.2788 45.5914 5.38773 45.4774 5.38773 45.3106L5.00042 43.5688L6.72719 44.0165C7.11853 44.1304 7.22746 44.1833 7.34043 43.9025L7.67126 43.288L10.1767 46.2629C10.2332 46.3768 10.4551 46.4297 10.564 46.4297L11.4556 46.1489C11.2337 48.1715 11.0643 48.786 11.0643 49.2377H26.6535V49.7464H11.0683C11.0683 50.194 11.2337 50.8126 11.4596 52.8351L10.568 52.6113C10.4551 52.5543 10.2291 52.6113 10.1767 52.7212Z" fill="white"/>
</svg>
