<svg width="110" height="149" viewBox="0 0 110 149" fill="none" xmlns="http://www.w3.org/2000/svg">
<path d="M106 -423.1L106 138.2L55.1498 115.552L4.2998 138.2L4.2998 -423.1L55.1498 -400.475L106 -423.1Z" fill="#F73E42"/>
<g filter="url(#filter0_d)">
<path d="M106 -423.1L106 138.2L55.1498 115.552L4.2998 138.2L4.2998 -423.1L55.1498 -400.475L106 -423.1Z" fill="white"/>
</g>
<path fill-rule="evenodd" clip-rule="evenodd" d="M43.7833 -88.0688L35.7996 -94.8006L37.4597 -95.5486C38.2133 -95.8521 37.9075 -96.2966 37.7546 -97.3372L36.4003 -101.825L41.0638 -100.925C41.5225 -100.774 41.8174 -101.077 41.9703 -101.37L42.571 -103.614L46.1861 -99.2776C46.7977 -98.5296 47.8461 -98.5297 47.3984 -100.177L45.8912 -108.85L48.01 -107.657C48.6107 -107.354 49.5172 -107.961 49.5172 -107.961L52.3786 -113.5L55.393 -107.961C55.6988 -107.364 56.2995 -107.365 56.9002 -107.657L59.008 -108.85L57.348 -100.177C57.0421 -98.5297 58.1015 -98.5296 58.7132 -99.2776L62.3282 -103.614L62.9289 -101.37C62.9289 -101.066 63.2347 -100.774 63.6825 -100.925L68.3569 -101.825L67.1556 -97.3372C66.8498 -96.2966 66.7078 -95.8413 67.4614 -95.5486L69.0996 -94.7898L61.1159 -88.058C60.8101 -87.7545 60.6681 -87.31 60.6681 -86.8547L61.4217 -84.459C55.9937 -85.0552 54.3445 -85.5105 53.1322 -85.6514V-74.2237H51.767V-85.6514C50.5656 -85.4997 48.9055 -85.0552 43.4775 -84.459L44.0782 -86.8547C44.2311 -87.31 44.0782 -87.7653 43.7833 -88.0688ZM43.7833 303.417L35.7996 310.149L37.4597 311.048C38.2133 311.352 37.9075 311.645 37.7546 312.696L36.4003 317.336L41.0638 316.295C41.5225 316.295 41.8174 316.599 41.9703 316.891L42.571 318.984L46.1861 314.799C46.7977 314.051 47.8461 314.051 47.3984 315.699L45.8912 324.371L48.01 323.179C48.6107 322.875 49.5172 323.33 49.5172 323.33L52.3786 329L55.393 323.32C55.6988 322.723 56.2995 322.875 56.9002 323.168L59.008 324.36L57.348 315.688C57.0421 314.04 58.1015 314.04 58.7132 314.788L62.3173 318.973L62.918 316.881C62.918 316.577 63.2238 316.284 63.6716 316.284L68.346 317.325L67.1446 312.685C66.8388 311.634 66.6969 311.341 67.4504 311.038L69.0996 310.149L61.1159 303.417C60.8101 303.265 60.6681 302.669 60.6681 302.376L61.4217 299.981C55.9937 300.577 54.3445 301.032 53.1322 301.032L53.1322 259.145H51.767L51.767 301.021C50.5656 301.021 48.9055 300.577 43.4775 299.97L44.0782 302.365C44.2311 302.669 44.0782 303.276 43.7833 303.417Z" fill="white"/>
<path fill-rule="evenodd" clip-rule="evenodd" d="M46.4835 101.831L38.4998 95.0994L40.1599 94.3514C40.9135 94.0479 40.6077 93.6035 40.4548 92.5628L39.1005 88.0749L43.764 88.9747C44.2227 89.1264 44.5176 88.8229 44.6705 88.5302L45.2712 86.2863L48.8863 90.6224C49.4979 91.3704 50.5463 91.3704 50.0986 89.7226L48.5914 81.0504L50.7102 82.2428C51.3109 82.5464 52.2174 81.9393 52.2174 81.9393L55.0788 76.3999L58.0932 81.9393C58.399 82.5356 58.9997 82.5355 59.6004 82.2428L61.7082 81.0504L60.0481 89.7226C59.7423 91.3704 60.8017 91.3704 61.4134 90.6224L65.0284 86.2863L65.6291 88.5302C65.6291 88.8337 65.9349 89.1264 66.3827 88.9747L71.0571 88.0749L69.8558 92.5628C69.55 93.6035 69.408 94.0587 70.1616 94.3514L71.7998 95.1103L63.8161 101.842C63.5103 102.146 63.3683 102.59 63.3683 103.045L64.1219 105.441C58.6939 104.845 57.0447 104.39 55.8324 104.249L55.8998 115.85L55.1498 115.55L54.3998 115.85L54.4672 104.249C53.2658 104.4 51.6057 104.845 46.1777 105.441L46.7784 103.045C46.9313 102.59 46.7784 102.135 46.4835 101.831ZM46.4835 493.317L38.4998 500.049L40.1599 500.948C40.9135 501.252 40.6077 501.545 40.4548 502.596L39.1005 507.236L43.764 506.195C44.2227 506.195 44.5176 506.499 44.6705 506.791L45.2712 508.884L48.8863 504.699C49.4979 503.951 50.5463 503.951 50.0986 505.599L48.5914 514.271L50.7102 513.079C51.3109 512.775 52.2174 513.23 52.2174 513.23L55.0788 518.9L58.0932 513.22C58.399 512.623 58.9997 512.775 59.6004 513.068L61.7082 514.26L60.0481 505.588C59.7423 503.94 60.8017 503.94 61.4134 504.688L65.0175 508.873L65.6182 506.781C65.6182 506.477 65.924 506.184 66.3718 506.184L71.0462 507.225L69.8448 502.585C69.539 501.534 69.397 501.241 70.1506 500.938L71.7998 500.049L63.8161 493.317C63.5103 493.165 63.3683 492.569 63.3683 492.276L64.1219 489.881C58.6939 490.477 57.0447 490.932 55.8324 490.932L55.8324 449.045H54.4672L54.4672 490.921C53.2658 490.921 51.6057 490.477 46.1777 489.87L46.7784 492.265C46.9313 492.569 46.7784 493.176 46.4835 493.317Z" fill="#F73E42"/>
<path d="M21.9139 40.3965C21.839 42.0901 21.3629 43.3722 20.4855 44.2428C19.6082 45.1134 18.3703 45.5486 16.7719 45.5486C15.092 45.5486 13.8031 44.9977 12.9053 43.8959C12.0143 42.7873 11.5688 41.2093 11.5688 39.1621V36.6625C11.5688 34.6221 12.0313 33.0509 12.9563 31.9491C13.8813 30.8405 15.1668 30.2861 16.8128 30.2861C18.4315 30.2861 19.6592 30.7384 20.4957 31.643C21.3391 32.5476 21.8186 33.8467 21.9343 35.5403H18.9246C18.8974 34.4929 18.7342 33.7719 18.4349 33.3774C18.1424 32.9761 17.6017 32.7755 16.8128 32.7755C16.0102 32.7755 15.4423 33.0577 15.109 33.6223C14.7757 34.18 14.5989 35.1016 14.5785 36.3871V39.1927C14.5785 40.6686 14.7417 41.682 15.0682 42.2329C15.4014 42.7839 15.9694 43.0593 16.7719 43.0593C17.5609 43.0593 18.105 42.8689 18.4043 42.488C18.7036 42.1003 18.8736 41.4032 18.9144 40.3965H21.9139ZM30.851 42.3043H26.7599L25.9641 45.3446H22.7912L27.4332 30.4902H30.1776L34.8503 45.3446H31.6468L30.851 42.3043ZM27.4128 39.8048H30.1878L28.8003 34.5099L27.4128 39.8048ZM46.6338 45.3446H43.6343L39.2474 35.6015V45.3446H36.248V30.4902H39.2474L43.6446 40.2435V30.4902H46.6338V45.3446ZM56.3157 42.3043H52.2246L51.4288 45.3446H48.256L52.898 30.4902H55.6423L60.315 45.3446H57.1115L56.3157 42.3043ZM52.8775 39.8048H55.6525L54.265 34.5099L52.8775 39.8048ZM61.7127 45.3446V30.4902H65.6405C67.3749 30.4902 68.7556 31.0411 69.7826 32.143C70.8164 33.2448 71.3435 34.7547 71.3639 36.6727V39.0805C71.3639 41.0325 70.847 42.5662 69.8132 43.6816C68.7862 44.7903 67.3681 45.3446 65.5589 45.3446H61.7127ZM64.7121 32.9897V42.8553H65.6099C66.6097 42.8553 67.3137 42.5934 67.7218 42.0697C68.1298 41.5392 68.3441 40.6278 68.3645 39.3355V36.7543C68.3645 35.3668 68.1707 34.401 67.783 33.8569C67.3953 33.306 66.7355 33.0169 65.8037 32.9897H64.7121ZM80.3929 42.3043H76.3018L75.506 45.3446H72.3332L76.9752 30.4902H79.7196L84.3922 45.3446H81.1887L80.3929 42.3043ZM76.9548 39.8048H79.7298L78.3423 34.5099L76.9548 39.8048ZM85.3818 35.0506L84.0555 34.2446C84.5384 33.2856 84.79 32.3538 84.8105 31.4492V29.674H87.0753V31.286C87.0685 31.9049 86.9053 32.5748 86.5856 33.2958C86.2728 34.01 85.8715 34.5949 85.3818 35.0506ZM95.533 41.4474C95.533 40.842 95.3765 40.3863 95.0637 40.0803C94.7576 39.7674 94.1965 39.4443 93.3803 39.1111C91.8908 38.5465 90.8196 37.8868 90.1666 37.1318C89.5137 36.3701 89.1872 35.4723 89.1872 34.4384C89.1872 33.187 89.6293 32.1838 90.5135 31.4288C91.4045 30.667 92.5335 30.2861 93.9006 30.2861C94.812 30.2861 95.6248 30.48 96.3389 30.8677C97.0531 31.2486 97.6006 31.7893 97.9815 32.4898C98.3692 33.1904 98.563 33.9861 98.563 34.8771H95.5738C95.5738 34.1834 95.4241 33.6563 95.1249 33.2958C94.8324 32.9285 94.4073 32.7449 93.8496 32.7449C93.3259 32.7449 92.9178 32.9013 92.6253 33.2142C92.3329 33.5202 92.1866 33.9351 92.1866 34.4589C92.1866 34.8669 92.3499 35.2376 92.6764 35.5709C93.0028 35.8974 93.5809 36.2374 94.4107 36.5911C95.8594 37.1148 96.9103 37.7576 97.5632 38.5193C98.223 39.2811 98.5528 40.2503 98.5528 41.427C98.5528 42.7192 98.1413 43.7293 97.3184 44.457C96.4954 45.1848 95.3765 45.5486 93.9618 45.5486C93.0028 45.5486 92.1288 45.3514 91.3399 44.9569C90.5509 44.5624 89.932 43.9979 89.4831 43.2634C89.041 42.5288 88.8199 41.6616 88.8199 40.6618H91.8296C91.8296 41.5188 91.9962 42.1411 92.3295 42.5288C92.6628 42.9165 93.2069 43.1103 93.9618 43.1103C95.0093 43.1103 95.533 42.556 95.533 41.4474Z" fill="#F73E42"/>
<path d="M28.8392 59.7931C28.778 60.9867 28.4413 61.8998 27.8292 62.5324C27.2222 63.1649 26.3626 63.4812 25.2506 63.4812C24.1334 63.4812 23.2459 63.0578 22.5878 62.211C21.9298 61.3591 21.6007 60.2062 21.6007 58.7524V56.7324C21.6007 55.2837 21.9374 54.1385 22.6108 53.2968C23.2892 52.4551 24.2125 52.0343 25.3807 52.0343C26.457 52.0343 27.2885 52.3582 27.8751 53.006C28.4668 53.6488 28.7882 54.5695 28.8392 55.7683H27.4237C27.3624 54.8603 27.1712 54.2125 26.8498 53.8248C26.5284 53.4371 26.0387 53.2432 25.3807 53.2432C24.6206 53.2432 24.0365 53.5417 23.6284 54.1385C23.2203 54.7302 23.0163 55.6 23.0163 56.7477V58.7907C23.0163 59.918 23.205 60.7827 23.5825 61.3846C23.9651 61.9865 24.5211 62.2875 25.2506 62.2875C25.98 62.2875 26.5055 62.1064 26.8268 61.7442C27.1482 61.3821 27.3471 60.7317 27.4237 59.7931H28.8392ZM37.8988 60.4205H34.1342L33.2695 63.3281H31.831L35.4196 52.1873H36.6209L40.2172 63.3281H38.7787L37.8988 60.4205ZM34.5014 59.2115H37.5391L36.0165 54.1461L34.5014 59.2115ZM48.5575 60.5123C48.5575 59.9563 48.407 59.5304 48.1061 59.2345C47.8051 58.9386 47.2618 58.6504 46.4763 58.3699C45.6907 58.0893 45.0888 57.796 44.6705 57.4899C44.2573 57.1787 43.9461 56.8268 43.737 56.434C43.5329 56.0361 43.4309 55.5821 43.4309 55.072C43.4309 54.1895 43.7242 53.4626 44.3109 52.8913C44.9026 52.3199 45.6754 52.0343 46.6293 52.0343C47.2823 52.0343 47.8638 52.1822 48.3739 52.4781C48.884 52.7688 49.2768 53.1744 49.5522 53.6947C49.8277 54.215 49.9654 54.7863 49.9654 55.4087H48.5575C48.5575 54.72 48.3917 54.1869 48.0602 53.8095C47.7286 53.432 47.2516 53.2432 46.6293 53.2432C46.0631 53.2432 45.6244 53.4014 45.3132 53.7176C45.0021 54.0339 44.8465 54.4777 44.8465 55.049C44.8465 55.5183 45.0148 55.9111 45.3515 56.2274C45.6882 56.5437 46.2085 56.8268 46.9124 57.0767C48.0092 57.4389 48.7922 57.8852 49.2615 58.4158C49.7359 58.9463 49.9731 59.64 49.9731 60.497C49.9731 61.3999 49.6798 62.1243 49.0931 62.6701C48.5065 63.2108 47.7082 63.4812 46.6982 63.4812C46.0503 63.4812 45.451 63.3409 44.9 63.0603C44.3542 62.7747 43.9232 62.3768 43.6069 61.8667C43.2957 61.3514 43.1402 60.7623 43.1402 60.0991H44.5481C44.5481 60.7878 44.7394 61.3234 45.1219 61.706C45.5096 62.0886 46.035 62.2798 46.6982 62.2798C47.3154 62.2798 47.7796 62.1217 48.0908 61.8054C48.4019 61.4892 48.5575 61.0581 48.5575 60.5123ZM55.2374 63.3281H53.8372V52.1873H55.2374V63.3281ZM66.9292 63.3281H65.5212L61.0603 54.743V63.3281H59.6524V52.1873H61.0603L65.5366 60.8107V52.1873H66.9292V63.3281ZM78.5597 58.7371C78.5597 60.2573 78.2357 61.428 77.5879 62.2492C76.9401 63.0705 76.0193 63.4812 74.8257 63.4812C73.6779 63.4812 72.7699 63.0833 72.1017 62.2875C71.4385 61.4866 71.0942 60.3567 71.0687 58.8978V56.8013C71.0687 55.3117 71.3977 54.1461 72.0558 53.3045C72.7138 52.4577 73.632 52.0343 74.8104 52.0343C75.9836 52.0343 76.8967 52.4398 77.5496 53.2509C78.2077 54.0569 78.5444 55.2097 78.5597 56.7094V58.7371ZM77.1594 56.786C77.1594 55.6076 76.9656 54.7328 76.5779 54.1614C76.1953 53.585 75.6061 53.2968 74.8104 53.2968C74.0401 53.2968 73.456 53.5876 73.0581 54.1691C72.6653 54.7506 72.4664 55.6076 72.4613 56.7401V58.7371C72.4613 59.8747 72.6577 60.7419 73.0505 61.3387C73.4484 61.9355 74.0401 62.2339 74.8257 62.2339C75.6112 62.2339 76.1928 61.9585 76.5702 61.4076C76.9477 60.8566 77.1441 60.0124 77.1594 58.8749V56.786ZM87.5504 60.5123C87.5504 59.9563 87.3999 59.5304 87.0989 59.2345C86.7979 58.9386 86.2547 58.6504 85.4691 58.3699C84.6835 58.0893 84.0816 57.796 83.6633 57.4899C83.2501 57.1787 82.939 56.8268 82.7298 56.434C82.5258 56.0361 82.4238 55.5821 82.4238 55.072C82.4238 54.1895 82.7171 53.4626 83.3037 52.8913C83.8954 52.3199 84.6682 52.0343 85.6221 52.0343C86.2751 52.0343 86.8566 52.1822 87.3667 52.4781C87.8768 52.7688 88.2696 53.1744 88.5451 53.6947C88.8205 54.215 88.9583 54.7863 88.9583 55.4087H87.5504C87.5504 54.72 87.3846 54.1869 87.053 53.8095C86.7214 53.432 86.2445 53.2432 85.6221 53.2432C85.0559 53.2432 84.6172 53.4014 84.3061 53.7176C83.9949 54.0339 83.8393 54.4777 83.8393 55.049C83.8393 55.5183 84.0076 55.9111 84.3443 56.2274C84.681 56.5437 85.2013 56.8268 85.9053 57.0767C87.002 57.4389 87.785 57.8852 88.2543 58.4158C88.7287 58.9463 88.9659 59.64 88.9659 60.497C88.9659 61.3999 88.6726 62.1243 88.086 62.6701C87.4993 63.2108 86.701 63.4812 85.691 63.4812C85.0432 63.4812 84.4438 63.3409 83.8929 63.0603C83.3471 62.7747 82.916 62.3768 82.5997 61.8667C82.2886 61.3514 82.133 60.7623 82.133 60.0991H83.5409C83.5409 60.7878 83.7322 61.3234 84.1148 61.706C84.5025 62.0886 85.0279 62.2798 85.691 62.2798C86.3082 62.2798 86.7724 62.1217 87.0836 61.8054C87.3948 61.4892 87.5504 61.0581 87.5504 60.5123Z" fill="black"/>
<defs>
<filter id="filter0_d" x="0.299805" y="-423.1" width="109.7" height="569.3" filterUnits="userSpaceOnUse" color-interpolation-filters="sRGB">
<feFlood flood-opacity="0" result="BackgroundImageFix"/>
<feColorMatrix in="SourceAlpha" type="matrix" values="0 0 0 0 0 0 0 0 0 0 0 0 0 0 0 0 0 0 127 0"/>
<feOffset dy="4"/>
<feGaussianBlur stdDeviation="2"/>
<feColorMatrix type="matrix" values="0 0 0 0 0 0 0 0 0 0 0 0 0 0 0 0 0 0 0.05 0"/>
<feBlend mode="normal" in2="BackgroundImageFix" result="effect1_dropShadow"/>
<feBlend mode="normal" in="SourceGraphic" in2="effect1_dropShadow" result="shape"/>
</filter>
</defs>
</svg>
