<svg width="174" height="142" viewBox="0 0 174 142" fill="none" xmlns="http://www.w3.org/2000/svg">
<path d="M118.417 64.0154H50.8058C46.2473 64.0154 42.5176 60.2866 42.5176 55.7293V36.119C42.5176 31.5617 46.2473 27.833 50.8058 27.833H118.417C122.976 27.833 126.706 31.5617 126.706 36.119V55.7293C126.706 60.2866 122.976 64.0154 118.417 64.0154Z" stroke="white" stroke-width="3.14774" stroke-miterlimit="10" stroke-linecap="round" stroke-linejoin="round"/>
<path d="M70.5181 27.833V64.0154" stroke="white" stroke-width="2.86159" stroke-miterlimit="10" stroke-linecap="round" stroke-linejoin="round"/>
<path d="M98.7051 27.833V64.0154" stroke="white" stroke-width="2.86159" stroke-miterlimit="10" stroke-linecap="round" stroke-linejoin="round"/>
<path d="M66.1741 39.4543C65.8978 40.1172 65.5732 40.7801 65.2003 41.4499C65.0207 41.7675 64.8411 42.0782 64.6477 42.3959C64.4612 42.7135 64.2678 43.0311 64.0744 43.3488C63.9363 43.5628 63.7982 43.7838 63.66 43.9978C63.5219 44.2119 63.3837 44.4329 63.2456 44.6469C62.9279 45.1441 62.624 45.6205 62.3201 46.097C61.7882 46.9256 61.3255 47.7956 60.9042 48.6795L57.7339 55.3083C57.2781 55.3083 56.836 55.3083 56.4009 55.3083C56.166 55.3083 55.9381 55.3083 55.724 55.3083C55.503 55.3083 55.2889 55.3083 55.0678 55.3083C54.3979 55.3083 53.7279 55.3083 53.051 55.3083C52.3811 55.3083 51.7111 55.3083 51.0342 55.3083C51.0135 55.3083 50.9928 55.3083 50.9583 55.3083C50.9306 55.3083 50.903 55.3083 50.8892 55.3083C50.6336 55.3083 50.3919 55.2669 50.1778 55.1909C49.9637 55.108 49.8531 54.9354 49.8531 54.6592C49.8531 54.6385 49.8531 54.6178 49.8531 54.5971C49.8531 54.5763 49.8531 54.5556 49.8531 54.5418C49.8739 54.5004 49.8877 54.459 49.8946 54.4244C49.9015 54.383 49.9084 54.3485 49.9084 54.3071C50.5991 51.7591 51.4625 49.8602 52.4847 48.6035C54.5153 46.1246 57.285 44.5571 59.6402 42.4304C60.0684 42.0437 60.4967 41.657 60.8904 41.2427C60.9249 41.2082 61.4015 40.6765 61.2426 40.6903C60.7177 40.7387 49.5562 41.0632 49.5562 41.0632C49.5562 41.0632 50.4748 37.88 50.6543 37.5002C50.751 37.3207 50.8685 37.1964 50.9997 37.1135C51.1309 37.0376 51.2622 36.9961 51.4003 36.9961C51.421 36.9961 51.4348 36.9961 51.4417 36.9961C51.4486 36.9961 51.4625 36.9961 51.4832 36.9961C52.0841 37.0583 52.7333 36.9961 53.3342 36.9961C54.7018 36.9892 56.0693 36.9823 57.4438 36.9685C58.8874 36.9547 60.3309 36.9409 61.7744 36.9133C62.4789 36.8995 63.1834 36.9133 63.8879 36.8856C64.5372 36.8649 66.6576 36.8373 66.6576 36.8373C66.6576 36.8373 66.6576 37.0583 66.6576 37.4933C66.6576 37.514 66.6576 37.5278 66.6576 37.5347C66.6576 37.5485 66.6576 37.5623 66.6576 37.5831C66.6024 38.17 66.4504 38.7914 66.1741 39.4543Z" stroke="white" stroke-width="2.24546" stroke-miterlimit="10" stroke-linecap="round" stroke-linejoin="round"/>
<path d="M92.8274 39.4543C92.5512 40.1172 92.2265 40.7801 91.8536 41.4499C91.674 41.7675 91.4944 42.0782 91.301 42.3959C91.1145 42.7135 90.9211 43.0311 90.7278 43.3488C90.5896 43.5628 90.4515 43.7838 90.3133 43.9978C90.1752 44.2119 90.0371 44.4329 89.8989 44.6469C89.5812 45.1441 89.2773 45.6205 88.9734 46.097C88.4416 46.9256 87.9788 47.7956 87.5575 48.6795L84.3872 55.3083C83.9314 55.3083 83.4893 55.3083 83.0542 55.3083C82.8194 55.3083 82.5914 55.3083 82.3773 55.3083C82.1563 55.3083 81.9422 55.3083 81.7212 55.3083C81.0512 55.3083 80.3812 55.3083 79.7044 55.3083C79.0344 55.3083 78.3644 55.3083 77.6875 55.3083C77.6668 55.3083 77.6461 55.3083 77.6116 55.3083C77.5839 55.3083 77.5563 55.3083 77.5425 55.3083C77.2869 55.3083 77.0452 55.2669 76.8311 55.1909C76.617 55.108 76.5065 54.9354 76.5065 54.6592C76.5065 54.6385 76.5065 54.6178 76.5065 54.5971C76.5065 54.5763 76.5065 54.5556 76.5065 54.5418C76.5272 54.5004 76.541 54.459 76.5479 54.4244C76.5548 54.383 76.5617 54.3485 76.5617 54.3071C77.2524 51.7591 78.1158 49.8602 79.138 48.6035C81.1686 46.1246 83.9383 44.5571 86.2935 42.4304C86.7218 42.0437 87.15 41.657 87.5437 41.2427C87.5782 41.2082 88.0548 40.6765 87.8959 40.6903C87.371 40.7387 76.2095 41.0632 76.2095 41.0632C76.2095 41.0632 77.1281 37.88 77.3077 37.5002C77.4044 37.3207 77.5218 37.1964 77.653 37.1135C77.7773 37.0376 77.9155 36.9961 78.0536 36.9961C78.0743 36.9961 78.0881 36.9961 78.0951 36.9961C78.102 36.9961 78.1158 36.9961 78.1365 36.9961C78.7374 37.0583 79.3866 36.9961 79.9875 36.9961C81.3551 36.9892 82.7227 36.9823 84.0971 36.9685C85.5407 36.9547 86.9842 36.9409 88.4278 36.9133C89.1323 36.8995 89.8368 36.9133 90.5413 36.8856C91.1905 36.8649 93.3109 36.8373 93.3109 36.8373C93.3109 36.8373 93.3109 37.0583 93.3109 37.4933C93.3109 37.514 93.3109 37.5278 93.3109 37.5347C93.3109 37.5485 93.3109 37.5623 93.3109 37.5831C93.2626 38.17 93.1037 38.7914 92.8274 39.4543Z" stroke="white" stroke-width="2.24546" stroke-miterlimit="10" stroke-linecap="round" stroke-linejoin="round"/>
<path d="M121.719 39.4543C121.443 40.1172 121.118 40.7801 120.745 41.4499C120.566 41.7675 120.386 42.0782 120.193 42.3959C120.006 42.7135 119.813 43.0311 119.619 43.3488C119.481 43.5628 119.343 43.7838 119.205 43.9978C119.067 44.2119 118.929 44.4329 118.791 44.6469C118.473 45.1441 118.169 45.6205 117.865 46.097C117.333 46.9256 116.87 47.7956 116.449 48.6795L113.279 55.3083C112.823 55.3083 112.381 55.3083 111.946 55.3083C111.711 55.3083 111.483 55.3083 111.269 55.3083C111.048 55.3083 110.834 55.3083 110.613 55.3083C109.943 55.3083 109.273 55.3083 108.596 55.3083C107.926 55.3083 107.256 55.3083 106.579 55.3083C106.558 55.3083 106.538 55.3083 106.503 55.3083C106.476 55.3083 106.448 55.3083 106.434 55.3083C106.179 55.3083 105.937 55.2669 105.723 55.1909C105.509 55.108 105.398 54.9354 105.398 54.6592C105.398 54.6385 105.398 54.6178 105.398 54.5971C105.398 54.5763 105.398 54.5556 105.398 54.5418C105.419 54.5004 105.433 54.459 105.44 54.4244C105.446 54.383 105.453 54.3485 105.453 54.3071C106.144 51.7591 107.007 49.8602 108.03 48.6035C110.06 46.1246 112.83 44.5571 115.185 42.4304C115.613 42.0437 116.042 41.657 116.435 41.2427C116.47 41.2082 116.946 40.6765 116.788 40.6903C116.263 40.7387 105.101 41.0632 105.101 41.0632C105.101 41.0632 106.02 37.88 106.199 37.5002C106.296 37.3207 106.413 37.1964 106.545 37.1135C106.676 37.0376 106.807 36.9961 106.945 36.9961C106.966 36.9961 106.98 36.9961 106.987 36.9961C106.994 36.9961 107.007 36.9961 107.028 36.9961C107.629 37.0583 108.278 36.9961 108.879 36.9961C110.247 36.9892 111.614 36.9823 112.989 36.9685C114.432 36.9547 115.876 36.9409 117.319 36.9133C118.024 36.8995 118.728 36.9133 119.433 36.8856C120.082 36.8649 122.203 36.8373 122.203 36.8373C122.203 36.8373 122.203 37.0583 122.203 37.4933C122.203 37.514 122.203 37.5278 122.203 37.5347C122.203 37.5485 122.203 37.5623 122.203 37.5831C122.154 38.17 121.995 38.7914 121.719 39.4543Z" stroke="white" stroke-width="2.24546" stroke-miterlimit="10" stroke-linecap="round" stroke-linejoin="round"/>
<path d="M15.5811 1.9921V91.8353H154.761V1.9921H15.5811ZM146.595 83.6756H23.7469V10.1518H146.595V83.6756Z" stroke="white" stroke-width="3.82181" stroke-miterlimit="10" stroke-linecap="round" stroke-linejoin="round"/>
<path d="M15.5804 91.8354L2.2207 131.783V140.03H171.785V131.783L154.761 91.8354" stroke="white" stroke-width="3.82181" stroke-miterlimit="10" stroke-linecap="round" stroke-linejoin="round"/>
<path d="M2.2207 131.783H171.785" stroke="white" stroke-width="3.82181" stroke-miterlimit="10" stroke-linecap="round" stroke-linejoin="round"/>
<path d="M47.4219 124.402H117.942" stroke="white" stroke-width="3.82181" stroke-miterlimit="10" stroke-linecap="round" stroke-linejoin="round"/>
<path d="M22.5776 100.039H27.6849" stroke="white" stroke-width="4.1729" stroke-miterlimit="10" stroke-linecap="round" stroke-linejoin="round"/>
<path d="M42.3716 100.039H47.4788" stroke="white" stroke-width="4.1729" stroke-miterlimit="10" stroke-linecap="round" stroke-linejoin="round"/>
<path d="M62.1665 100.039H67.2738" stroke="white" stroke-width="4.1729" stroke-miterlimit="10" stroke-linecap="round" stroke-linejoin="round"/>
<path d="M81.9604 100.039H87.0821" stroke="white" stroke-width="4.1729" stroke-miterlimit="10" stroke-linecap="round" stroke-linejoin="round"/>
<path d="M101.755 100.039H106.877" stroke="white" stroke-width="4.1729" stroke-miterlimit="10" stroke-linecap="round" stroke-linejoin="round"/>
<path d="M121.549 100.039H126.671" stroke="white" stroke-width="4.1729" stroke-miterlimit="10" stroke-linecap="round" stroke-linejoin="round"/>
<path d="M141.357 100.039H146.465" stroke="white" stroke-width="4.1729" stroke-miterlimit="10" stroke-linecap="round" stroke-linejoin="round"/>
<path d="M22.4771 108.155H27.5843" stroke="white" stroke-width="4.1729" stroke-miterlimit="10" stroke-linecap="round" stroke-linejoin="round"/>
<path d="M42.2705 108.155H47.3922" stroke="white" stroke-width="4.1729" stroke-miterlimit="10" stroke-linecap="round" stroke-linejoin="round"/>
<path d="M62.0654 108.155H67.1871" stroke="white" stroke-width="4.1729" stroke-miterlimit="10" stroke-linecap="round" stroke-linejoin="round"/>
<path d="M81.8594 108.155H86.9811" stroke="white" stroke-width="4.1729" stroke-miterlimit="10" stroke-linecap="round" stroke-linejoin="round"/>
<path d="M101.654 108.155H106.776" stroke="white" stroke-width="4.1729" stroke-miterlimit="10" stroke-linecap="round" stroke-linejoin="round"/>
<path d="M121.462 108.155H126.57" stroke="white" stroke-width="4.1729" stroke-miterlimit="10" stroke-linecap="round" stroke-linejoin="round"/>
<path d="M141.257 108.155H146.364" stroke="white" stroke-width="4.1729" stroke-miterlimit="10" stroke-linecap="round" stroke-linejoin="round"/>
<path d="M22.4771 117.655H27.5843" stroke="white" stroke-width="4.1729" stroke-miterlimit="10" stroke-linecap="round" stroke-linejoin="round"/>
<path d="M42.2705 117.655H47.3922" stroke="white" stroke-width="4.1729" stroke-miterlimit="10" stroke-linecap="round" stroke-linejoin="round"/>
<path d="M62.0654 117.655H67.1871" stroke="white" stroke-width="4.1729" stroke-miterlimit="10" stroke-linecap="round" stroke-linejoin="round"/>
<path d="M81.8594 117.655H86.9811" stroke="white" stroke-width="4.1729" stroke-miterlimit="10" stroke-linecap="round" stroke-linejoin="round"/>
<path d="M101.654 117.655H106.776" stroke="white" stroke-width="4.1729" stroke-miterlimit="10" stroke-linecap="round" stroke-linejoin="round"/>
<path d="M121.462 117.655H126.57" stroke="white" stroke-width="4.1729" stroke-miterlimit="10" stroke-linecap="round" stroke-linejoin="round"/>
<path d="M141.257 117.655H146.364" stroke="white" stroke-width="4.1729" stroke-miterlimit="10" stroke-linecap="round" stroke-linejoin="round"/>
</svg>
