<svg width="438" height="169" viewBox="0 0 438 169" fill="none" xmlns="http://www.w3.org/2000/svg">
<path d="M438 92H0L17.6732 46L0 0H438L420.345 46L438 92Z" fill="white"/>
<path d="M92.3203 56.0547C92.0339 62.5391 90.2109 67.4479 86.8516 70.7812C83.4922 74.1146 78.7526 75.7812 72.6328 75.7812C66.2005 75.7812 61.2656 73.6719 57.8281 69.4531C54.4167 65.2083 52.7109 59.1667 52.7109 51.3281V41.7578C52.7109 33.9453 54.4818 27.9297 58.0234 23.7109C61.5651 19.4661 66.487 17.3438 72.7891 17.3438C78.987 17.3438 83.6875 19.0755 86.8906 22.5391C90.1198 26.0026 91.9557 30.9766 92.3984 37.4609H80.875C80.7708 33.4505 80.1458 30.6901 79 29.1797C77.8802 27.6432 75.8099 26.875 72.7891 26.875C69.7161 26.875 67.5417 27.9557 66.2656 30.1172C64.9896 32.2526 64.3125 35.7812 64.2344 40.7031V51.4453C64.2344 57.0964 64.8594 60.9766 66.1094 63.0859C67.3854 65.1953 69.5599 66.25 72.6328 66.25C75.6536 66.25 77.737 65.5208 78.8828 64.0625C80.0286 62.5781 80.6797 59.9089 80.8359 56.0547H92.3203ZM126.539 63.3594H110.875L107.828 75H95.6797L113.453 18.125H123.961L141.852 75H129.586L126.539 63.3594ZM113.375 53.7891H124L118.688 33.5156L113.375 53.7891ZM186.969 75H175.484L158.688 37.6953V75H147.203V18.125H158.688L175.523 55.4688V18.125H186.969V75ZM224.039 63.3594H208.375L205.328 75H193.18L210.953 18.125H221.461L239.352 75H227.086L224.039 63.3594ZM210.875 53.7891H221.5L216.188 33.5156L210.875 53.7891ZM244.703 75V18.125H259.742C266.383 18.125 271.669 20.2344 275.602 24.4531C279.56 28.6719 281.578 34.4531 281.656 41.7969V51.0156C281.656 58.4896 279.677 64.362 275.719 68.6328C271.786 72.8776 266.357 75 259.43 75H244.703ZM256.188 27.6953V65.4688H259.625C263.453 65.4688 266.148 64.4661 267.711 62.4609C269.273 60.4297 270.094 56.9401 270.172 51.9922V42.1094C270.172 36.7969 269.43 33.099 267.945 31.0156C266.461 28.9062 263.935 27.7995 260.367 27.6953H256.188ZM316.227 63.3594H300.562L297.516 75H285.367L303.141 18.125H313.648L331.539 75H319.273L316.227 63.3594ZM303.062 53.7891H313.688L308.375 33.5156L303.062 53.7891ZM335.328 35.5859L330.25 32.5C332.099 28.8281 333.062 25.2604 333.141 21.7969V15H341.812V21.1719C341.786 23.5417 341.161 26.1068 339.938 28.8672C338.74 31.6016 337.203 33.8411 335.328 35.5859ZM374.195 60.0781C374.195 57.7604 373.596 56.0156 372.398 54.8438C371.227 53.6458 369.078 52.4089 365.953 51.1328C360.25 48.9714 356.148 46.4453 353.648 43.5547C351.148 40.638 349.898 37.2005 349.898 33.2422C349.898 28.4505 351.591 24.6094 354.977 21.7188C358.388 18.8021 362.711 17.3438 367.945 17.3438C371.435 17.3438 374.547 18.0859 377.281 19.5703C380.016 21.0286 382.112 23.099 383.57 25.7812C385.055 28.4635 385.797 31.5104 385.797 34.9219H374.352C374.352 32.2656 373.779 30.2474 372.633 28.8672C371.513 27.4609 369.885 26.7578 367.75 26.7578C365.745 26.7578 364.182 27.3568 363.062 28.5547C361.943 29.7266 361.383 31.3151 361.383 33.3203C361.383 34.8828 362.008 36.3021 363.258 37.5781C364.508 38.8281 366.721 40.1302 369.898 41.4844C375.445 43.4896 379.469 45.9505 381.969 48.8672C384.495 51.7839 385.758 55.4948 385.758 60C385.758 64.9479 384.182 68.8151 381.031 71.6016C377.88 74.388 373.596 75.7812 368.18 75.7812C364.508 75.7812 361.161 75.026 358.141 73.5156C355.12 72.0052 352.75 69.8438 351.031 67.0312C349.339 64.2188 348.492 60.8984 348.492 57.0703H360.016C360.016 60.3516 360.654 62.7344 361.93 64.2188C363.206 65.7031 365.289 66.4453 368.18 66.4453C372.19 66.4453 374.195 64.3229 374.195 60.0781Z" fill="#F73E42"/>
<path d="M118.836 138.465C118.602 143.035 117.312 146.531 114.969 148.953C112.645 151.375 109.354 152.586 105.096 152.586C100.818 152.586 97.4199 150.965 94.9004 147.723C92.3809 144.461 91.1211 140.047 91.1211 134.48V126.746C91.1211 121.199 92.4102 116.814 94.9883 113.592C97.5859 110.369 101.121 108.758 105.594 108.758C109.715 108.758 112.898 109.998 115.145 112.479C117.41 114.939 118.641 118.465 118.836 123.055H113.416C113.182 119.578 112.449 117.098 111.219 115.613C109.988 114.129 108.113 113.387 105.594 113.387C102.684 113.387 100.447 114.529 98.8848 116.814C97.3223 119.08 96.541 122.41 96.541 126.805V134.627C96.541 138.943 97.2637 142.254 98.709 144.559C100.174 146.863 102.303 148.016 105.096 148.016C107.889 148.016 109.9 147.322 111.131 145.936C112.361 144.549 113.123 142.059 113.416 138.465H118.836ZM153.523 140.867H139.109L135.799 152H130.291L144.031 109.344H148.631L162.4 152H156.893L153.523 140.867ZM140.516 136.238H152.146L146.316 116.844L140.516 136.238ZM194.334 141.219C194.334 139.09 193.758 137.459 192.605 136.326C191.453 135.193 189.373 134.09 186.365 133.016C183.357 131.941 181.053 130.818 179.451 129.646C177.869 128.455 176.678 127.107 175.877 125.604C175.096 124.08 174.705 122.342 174.705 120.389C174.705 117.01 175.828 114.227 178.074 112.039C180.34 109.852 183.299 108.758 186.951 108.758C189.451 108.758 191.678 109.324 193.631 110.457C195.584 111.57 197.088 113.123 198.143 115.115C199.197 117.107 199.725 119.295 199.725 121.678H194.334C194.334 119.041 193.699 117 192.43 115.555C191.16 114.109 189.334 113.387 186.951 113.387C184.783 113.387 183.104 113.992 181.912 115.203C180.721 116.414 180.125 118.113 180.125 120.301C180.125 122.098 180.77 123.602 182.059 124.812C183.348 126.023 185.34 127.107 188.035 128.064C192.234 129.451 195.232 131.16 197.029 133.191C198.846 135.223 199.754 137.879 199.754 141.16C199.754 144.617 198.631 147.391 196.385 149.48C194.139 151.551 191.082 152.586 187.215 152.586C184.734 152.586 182.439 152.049 180.33 150.975C178.24 149.881 176.59 148.357 175.379 146.404C174.188 144.432 173.592 142.176 173.592 139.637H178.982C178.982 142.273 179.715 144.324 181.18 145.789C182.664 147.254 184.676 147.986 187.215 147.986C189.578 147.986 191.355 147.381 192.547 146.17C193.738 144.959 194.334 143.309 194.334 141.219ZM219.91 152H214.549V109.344H219.91V152ZM264.676 152H259.285L242.205 119.129V152H236.814V109.344H242.205L259.344 142.361V109.344H264.676V152ZM309.207 134.422C309.207 140.242 307.967 144.725 305.486 147.869C303.006 151.014 299.48 152.586 294.91 152.586C290.516 152.586 287.039 151.062 284.48 148.016C281.941 144.949 280.623 140.623 280.525 135.037V127.01C280.525 121.307 281.785 116.844 284.305 113.621C286.824 110.379 290.34 108.758 294.852 108.758C299.344 108.758 302.84 110.311 305.34 113.416C307.859 116.502 309.148 120.916 309.207 126.658V134.422ZM303.846 126.951C303.846 122.439 303.104 119.09 301.619 116.902C300.154 114.695 297.898 113.592 294.852 113.592C291.902 113.592 289.666 114.705 288.143 116.932C286.639 119.158 285.877 122.439 285.857 126.775V134.422C285.857 138.777 286.609 142.098 288.113 144.383C289.637 146.668 291.902 147.811 294.91 147.811C297.918 147.811 300.145 146.756 301.59 144.646C303.035 142.537 303.787 139.305 303.846 134.949V126.951ZM343.631 141.219C343.631 139.09 343.055 137.459 341.902 136.326C340.75 135.193 338.67 134.09 335.662 133.016C332.654 131.941 330.35 130.818 328.748 129.646C327.166 128.455 325.975 127.107 325.174 125.604C324.393 124.08 324.002 122.342 324.002 120.389C324.002 117.01 325.125 114.227 327.371 112.039C329.637 109.852 332.596 108.758 336.248 108.758C338.748 108.758 340.975 109.324 342.928 110.457C344.881 111.57 346.385 113.123 347.439 115.115C348.494 117.107 349.021 119.295 349.021 121.678H343.631C343.631 119.041 342.996 117 341.727 115.555C340.457 114.109 338.631 113.387 336.248 113.387C334.08 113.387 332.4 113.992 331.209 115.203C330.018 116.414 329.422 118.113 329.422 120.301C329.422 122.098 330.066 123.602 331.355 124.812C332.645 126.023 334.637 127.107 337.332 128.064C341.531 129.451 344.529 131.16 346.326 133.191C348.143 135.223 349.051 137.879 349.051 141.16C349.051 144.617 347.928 147.391 345.682 149.48C343.436 151.551 340.379 152.586 336.512 152.586C334.031 152.586 331.736 152.049 329.627 150.975C327.537 149.881 325.887 148.357 324.676 146.404C323.484 144.432 322.889 142.176 322.889 139.637H328.279C328.279 142.273 329.012 144.324 330.477 145.789C331.961 147.254 333.973 147.986 336.512 147.986C338.875 147.986 340.652 147.381 341.844 146.17C343.035 144.959 343.631 143.309 343.631 141.219Z" fill="black"/>
<path fill-rule="evenodd" clip-rule="evenodd" d="M412.827 138.088L419.491 146L420.231 144.355C420.532 143.608 420.971 143.911 422.002 144.063L426.444 145.405L425.553 140.783C425.403 140.329 425.703 140.036 425.993 139.885L428.214 139.29L423.922 135.707C423.182 135.101 423.182 134.062 424.813 134.506L433.397 135.999L432.216 133.9C431.916 133.304 432.517 132.406 432.517 132.406L438 129.57L432.517 126.583C431.927 126.28 431.927 125.685 432.216 125.09L433.397 123.001L424.813 124.646C423.182 124.949 423.182 123.899 423.922 123.293L428.214 119.71L425.993 119.115C425.693 119.115 425.403 118.812 425.553 118.368L426.444 113.736L422.002 114.927C420.971 115.23 420.521 115.37 420.231 114.623L419.48 113L412.817 120.912C412.516 121.215 412.076 121.356 411.626 121.356L409.254 120.609C409.844 125.988 410.295 127.622 410.435 128.824H368.834V130.176H410.435C410.284 131.367 409.844 133.012 409.254 138.391L411.626 137.796C412.076 137.644 412.527 137.796 412.827 138.088ZM25.3229 138.088L18.6595 146L17.7689 144.355C17.4685 143.608 17.1788 143.911 16.138 144.063L11.5455 145.405L12.5756 140.783C12.5756 140.329 12.2752 140.036 11.9854 139.885L9.91455 139.29L14.0563 135.707C14.7967 135.101 14.7967 134.062 13.1658 134.506L4.58172 135.999L5.76203 133.9C6.06247 133.304 5.61181 132.406 5.61181 132.406L0 129.57L5.62254 126.583C6.21269 126.28 6.06247 125.685 5.77276 125.09L4.59245 123.001L13.1765 124.646C14.8074 124.949 14.8074 123.899 14.0671 123.293L9.92528 119.721L11.9962 119.126C12.2966 119.126 12.5863 118.823 12.5863 118.379L11.5562 113.747L16.1487 114.937C17.1895 115.24 17.4792 115.381 17.7797 114.634L18.6595 113L25.3229 120.912C25.4731 121.215 26.0633 121.356 26.353 121.356L28.7243 120.609C28.1341 125.988 27.6835 127.622 27.6835 128.824H69.1443V130.176H27.6942C27.6942 131.367 28.1341 133.012 28.735 138.391L26.3637 137.796C26.0633 137.644 25.4624 137.796 25.3229 138.088Z" fill="white"/>
</svg>
