<svg width="64" height="82" viewBox="0 0 64 82" fill="none" xmlns="http://www.w3.org/2000/svg">
<path d="M29.5188 81.9999C29.317 81.9999 29.1152 81.952 28.9304 81.8546L8.44324 71.0872C7.99385 70.8513 7.72591 70.3676 7.76321 69.8583L9.21653 49.7112C9.24705 49.2976 9.47259 48.9251 9.82363 48.7097C10.1747 48.4944 10.6071 48.4619 10.9853 48.626L32.79 58.0107C33.314 58.2363 33.6244 58.7849 33.5515 59.3541L30.7805 80.8821C30.7279 81.2974 30.4752 81.6598 30.1073 81.8546C29.9224 81.952 29.7206 81.9999 29.5188 81.9999ZM10.3612 69.2054L28.4911 78.7338L30.9043 59.9882L11.6246 51.6904L10.3612 69.2054Z" fill="#F73E42"/>
<path d="M10.4863 51.0871C10.1217 51.0871 9.75876 50.9299 9.50778 50.6257C9.05839 50.0822 9.133 49.2738 9.67227 48.8209L23.1506 37.5219C23.5084 37.2228 24.0002 37.1442 24.4309 37.3151L29.2555 39.2378C29.9084 39.4976 30.2289 40.2428 29.9712 40.9008C29.7134 41.5588 28.974 41.8818 28.3211 41.6221L24.1969 39.9779L11.2986 50.7915C11.0611 50.9914 10.7729 51.0871 10.4863 51.0871Z" fill="#F73E42"/>
<path d="M32.2898 60.4719C31.9557 60.4719 31.6217 60.3403 31.3707 60.0771C30.884 59.566 30.9009 58.7542 31.4097 58.2654L40.8282 49.1678C41.3353 48.6773 42.1408 48.6944 42.6258 49.2071C43.1125 49.7181 43.0955 50.5299 42.5868 51.0187L33.1682 60.1164C32.924 60.3539 32.6069 60.4719 32.2898 60.4719Z" fill="#F73E42"/>
<path d="M29.5191 82C29.2037 82 28.89 81.8837 28.6424 81.6479C28.1337 81.1608 28.1133 80.349 28.5966 79.8362L42.0071 65.6112L42.2225 64.0115C42.3174 63.3108 42.9568 62.8168 43.6537 62.9142C44.3507 63.0099 44.8374 63.6543 44.7424 64.3567L44.4728 66.3667C44.4372 66.6333 44.3185 66.8828 44.1353 67.0777L30.4434 81.6034C30.1907 81.8666 29.8549 82 29.5191 82Z" fill="#F73E42"/>
<path d="M44.2315 59.8993C44.1738 59.8993 44.1162 59.8959 44.0585 59.8873C43.3632 59.7916 42.8748 59.1473 42.9698 58.4448L43.3276 55.7837C43.4226 55.0813 44.0636 54.5891 44.7589 54.6865C45.4559 54.7822 45.9426 55.4282 45.8476 56.129L45.4898 58.7901C45.405 59.4327 44.859 59.8993 44.2315 59.8993Z" fill="#F73E42"/>
<path d="M21.9415 65.676C21.6397 66.91 20.4034 67.662 19.1791 67.3578C17.9547 67.0536 17.2085 65.8076 17.5104 64.5737C17.8122 63.3397 19.0485 62.5877 20.2729 62.8919C21.4972 63.1961 22.2434 64.4438 21.9415 65.676Z" fill="#F73E42"/>
<path d="M32.236 51.3553C33.0947 50.7729 33.3224 49.5993 32.7446 48.7339C32.1668 47.8685 31.0023 47.639 30.1436 48.2214C29.285 48.8037 29.0573 49.9773 29.6351 50.8427C30.2128 51.7081 31.3773 51.9376 32.236 51.3553Z" fill="#F73E42"/>
<path d="M24.6074 48.6671C25.6267 48.4863 26.3076 47.507 26.1282 46.4798C25.9489 45.4525 24.9772 44.7662 23.9579 44.947C22.9386 45.1278 22.2577 46.1071 22.437 47.1343C22.6164 48.1616 23.5881 48.8479 24.6074 48.6671Z" fill="#F73E42"/>
<path d="M41.4913 57.7868C41.0283 58.6756 40.1669 59.1387 39.5682 58.8226C38.9696 58.5047 38.8611 57.527 39.324 56.6383C39.787 55.7495 40.6485 55.2864 41.2471 55.6026C41.8457 55.9205 41.9559 56.8981 41.4913 57.7868Z" fill="#F73E42"/>
<path d="M39.0186 63.4066C38.5557 64.2953 37.6942 64.7585 37.0956 64.4423C36.497 64.1244 36.3884 63.1468 36.8514 62.258C37.3143 61.3693 38.1758 60.9061 38.7744 61.2223C39.3731 61.5402 39.4816 62.5178 39.0186 63.4066Z" fill="#F73E42"/>
<path d="M36.6446 68.9097C36.1816 69.7985 35.3202 70.2616 34.7216 69.9455C34.1229 69.6276 34.0144 68.6499 34.4774 67.7612C34.9403 66.8725 35.8018 66.4093 36.4004 66.7255C36.999 67.0434 37.1076 68.021 36.6446 68.9097Z" fill="#F73E42"/>
<path d="M41.5405 65.0712C41.4829 65.0712 41.4269 65.0712 41.371 65.0695C40.6689 65.061 40.1059 64.5004 40.1144 63.7928C40.1228 63.0904 40.6909 62.5469 41.3862 62.5469C41.3913 62.5469 41.3964 62.5469 41.4015 62.5469C41.449 62.5469 41.4964 62.5281 41.5456 62.5281C45.5036 62.5281 48.8614 60.5745 51.5255 56.7376C52.1105 55.8967 52.5955 55.049 52.9924 54.2713C51.0439 54.8456 49.1276 54.4491 47.715 53.521C45.7512 52.2323 44.9813 50.0925 45.797 48.1988C47.0875 45.2028 49.3616 45.1566 51.3661 45.1139C53.5011 45.0694 55.7108 45.025 58.1866 41.9298C60.9695 38.4517 61.4986 34.5498 61.4443 31.8546C59.8655 33.8816 57.2913 36.3495 53.5401 37.5579C53.05 37.7151 52.5345 37.8382 52.0088 37.9219C51.3152 38.0313 50.664 37.5545 50.5555 36.8537C50.4469 36.1547 50.9201 35.4984 51.6154 35.389C52.0139 35.3258 52.4005 35.2335 52.7668 35.1156C58.5021 33.268 61.0831 27.6946 61.1085 27.6382C61.3307 27.1494 61.8326 26.852 62.3651 26.8913C62.8976 26.934 63.3487 27.3049 63.4911 27.8228C63.5878 28.1731 65.8076 36.4863 60.1674 43.5364C56.9487 47.5596 53.7521 47.6263 51.4186 47.6741C49.4074 47.7152 48.7427 47.7955 48.1305 49.2158C47.7557 50.0857 48.4204 50.918 49.1039 51.3675C51.0608 52.6528 53.3434 51.6906 54.7374 50.1695C55.1359 49.7353 55.7769 49.6311 56.289 49.9182C56.8012 50.2053 57.0538 50.8087 56.8978 51.3795C56.8588 51.5196 55.9329 54.849 53.6096 58.1955C50.4826 62.6973 46.3126 65.0712 41.5405 65.0712Z" fill="#F73E42"/>
<path d="M27.7502 44.4166C27.6196 44.4166 27.4873 44.3961 27.3584 44.3534C26.6903 44.1346 26.324 43.4117 26.541 42.7383C27.4025 40.0618 29.1492 37.8246 31.7336 36.0898C36.2411 33.063 40.8367 33.9825 44.8931 34.7943C45.4714 34.9105 46.0683 35.0301 46.6466 35.1327C47.3385 35.2575 47.7981 35.9223 47.6743 36.6196C47.5505 37.3169 46.8908 37.7801 46.1989 37.6553C45.5986 37.5477 44.9881 37.4246 44.398 37.3067C40.4789 36.5239 36.777 35.7839 33.1445 38.2211C31.0485 39.6294 29.641 41.4137 28.961 43.5262C28.7863 44.0714 28.2877 44.4166 27.7502 44.4166Z" fill="#F73E42"/>
<path d="M61.0117 22.2579C60.4995 22.2579 60.0179 21.9451 59.8246 21.4358C59.4973 20.5761 59.1174 19.7215 58.6935 18.8943C58.3713 18.2654 58.6172 17.4911 59.2412 17.1681C59.8653 16.8434 60.6335 17.0912 60.954 17.7202C61.4187 18.6294 61.8375 19.5711 62.1987 20.518C62.4497 21.1794 62.1224 21.9195 61.4678 22.1741C61.3169 22.2305 61.1626 22.2579 61.0117 22.2579Z" fill="#F73E42"/>
<path d="M4.49593 13.4234C4.19068 13.4234 3.88374 13.3123 3.63954 13.0884C3.12063 12.6116 3.08332 11.7997 3.55645 11.2768C10.0446 4.11043 19.6904 0 30.023 0C39.9266 0 49.3129 3.83355 55.7773 10.5162C56.2674 11.0238 56.2572 11.8339 55.7536 12.3296C55.2499 12.8235 54.4461 12.8132 53.9543 12.3074C47.9664 6.11693 39.2431 2.56538 30.0213 2.56538C20.4044 2.56368 11.442 6.36988 5.43541 13.0047C5.18443 13.2815 4.84018 13.4234 4.49593 13.4234Z" fill="#F73E42"/>
<path d="M1.27022 17.7166C1.04128 17.7166 0.810651 17.6551 0.602065 17.5252C0.00513908 17.1526 -0.179705 16.363 0.188287 15.7614C0.408743 15.4024 0.639373 15.0418 0.878483 14.6897C1.27361 14.1035 2.06386 13.9531 2.64552 14.3496C3.22719 14.7479 3.37811 15.5443 2.98299 16.1305C2.76592 16.4536 2.55395 16.7817 2.35384 17.1081C2.11304 17.5012 1.69756 17.7166 1.27022 17.7166Z" fill="#F73E42"/>
<path d="M52.1195 37.3322C51.9838 37.3322 51.8481 37.31 51.7125 37.2638C51.0477 37.0382 50.6899 36.3101 50.9137 35.6402C51.4988 33.8934 51.7956 32.0749 51.7956 30.2359C51.7956 19.6907 42.0277 11.1109 30.0213 11.1109C28.4629 11.1109 26.9078 11.2562 25.3985 11.5433C24.7066 11.6749 24.0436 11.2169 23.913 10.5213C23.7824 9.82566 24.2369 9.15569 24.9271 9.02408C26.5907 8.7079 28.3052 8.54724 30.0213 8.54724C43.4301 8.54724 54.3393 18.2772 54.3393 30.2359C54.3393 32.3552 53.9984 34.4489 53.3235 36.4605C53.1454 36.9955 52.6503 37.3322 52.1195 37.3322Z" fill="#F73E42"/>
<path d="M16.0843 15.2659C15.6739 15.2659 15.2703 15.0659 15.0261 14.6968C14.6361 14.1088 14.7921 13.3124 15.3772 12.9193C16.8695 11.9143 18.4907 11.0632 20.1967 10.3915C20.8512 10.1334 21.5889 10.4599 21.845 11.1179C22.1011 11.7776 21.7772 12.5211 21.1243 12.7791C19.5896 13.3842 18.1312 14.1481 16.7915 15.0505C16.5727 15.1958 16.3285 15.2659 16.0843 15.2659Z" fill="#F73E42"/>
<path d="M42.4362 36.1615C42.2514 36.1615 42.0631 36.1205 41.8851 36.0351C41.2525 35.7274 40.9863 34.9617 41.2915 34.3242C41.7511 33.362 42.0445 32.3485 42.1632 31.3094C42.2446 30.6052 42.8737 30.101 43.5724 30.1831C44.2694 30.2651 44.7697 30.9009 44.69 31.6033C44.5373 32.9279 44.1659 34.2166 43.5826 35.4369C43.3638 35.8949 42.9093 36.1615 42.4362 36.1615Z" fill="#F73E42"/>
<path d="M42.6072 27.2484C42.1171 27.2484 41.6491 26.9612 41.4405 26.4793C40.328 23.9104 38.154 21.8373 35.3169 20.6409C34.6691 20.3674 34.3639 19.6171 34.6352 18.9643C34.9065 18.3114 35.651 18.0037 36.2988 18.2772C39.743 19.7299 42.3969 22.2782 43.7722 25.4538C44.0538 26.1032 43.7587 26.8587 43.116 27.1407C42.9498 27.2142 42.7768 27.2484 42.6072 27.2484Z" fill="#F73E42"/>
<path d="M31.4013 19.6496C31.364 19.6496 31.325 19.6479 31.286 19.6445C30.8688 19.6069 30.4431 19.5881 30.0209 19.5881C29.3188 19.5881 28.749 19.0138 28.749 18.3063C28.749 17.5987 29.3188 17.0244 30.0209 17.0244C30.5178 17.0244 31.0197 17.0466 31.5115 17.0911C32.2119 17.1543 32.7274 17.7764 32.6647 18.4823C32.6087 19.1488 32.0525 19.6496 31.4013 19.6496Z" fill="#F73E42"/>
</svg>
