<svg width="27" height="27" viewBox="0 0 27 27" fill="none" xmlns="http://www.w3.org/2000/svg">
<path d="M26.3728 23.4671L20.5222 17.6165C21.9308 15.7413 22.6911 13.4588 22.6886 11.1136C22.6886 5.12301 17.8148 0.249245 11.8243 0.249245C5.83373 0.249245 0.959961 5.12301 0.959961 11.1136C0.959961 17.1041 5.83373 21.9779 11.8243 21.9779C14.1695 21.9804 16.452 21.22 18.3272 19.8115L24.1778 25.6621C24.474 25.9268 24.8602 26.0682 25.2573 26.057C25.6544 26.0459 26.0322 25.8832 26.3131 25.6023C26.5939 25.3215 26.7566 24.9437 26.7678 24.5466C26.7789 24.1495 26.6376 23.7633 26.3728 23.4671ZM4.06405 11.1136C4.06405 9.57873 4.51918 8.07837 5.37188 6.80221C6.22459 5.52604 7.43657 4.5314 8.85456 3.94404C10.2726 3.35669 11.8329 3.20301 13.3382 3.50244C14.8435 3.80187 16.2263 4.54096 17.3116 5.62625C18.3969 6.71153 19.136 8.09427 19.4354 9.59961C19.7348 11.1049 19.5811 12.6653 18.9938 14.0833C18.4064 15.5013 17.4118 16.7132 16.1356 17.5659C14.8595 18.4186 13.3591 18.8738 11.8243 18.8738C9.76689 18.8713 7.79448 18.0529 6.33969 16.5981C4.8849 15.1433 4.06652 13.1709 4.06405 11.1136Z" fill="#ACACAC"/>
</svg>
