<svg width="22" height="22" viewBox="0 0 22 22" fill="none" xmlns="http://www.w3.org/2000/svg">
<path d="M20.7264 18.9362L15.9547 14.1645C17.1035 12.6351 17.7237 10.7736 17.7216 8.8608C17.7216 3.97498 13.7466 0 8.8608 0C3.97498 0 0 3.97498 0 8.8608C0 13.7466 3.97498 17.7216 8.8608 17.7216C10.7736 17.7237 12.6351 17.1035 14.1645 15.9547L18.9362 20.7264C19.1777 20.9423 19.4928 21.0576 19.8166 21.0485C20.1405 21.0395 20.4486 20.9068 20.6777 20.6777C20.9068 20.4486 21.0395 20.1405 21.0485 19.8166C21.0576 19.4928 20.9423 19.1777 20.7264 18.9362V18.9362ZM2.53166 8.8608C2.53166 7.60901 2.90285 6.38534 3.59831 5.34451C4.29376 4.30369 5.28224 3.49247 6.43874 3.01343C7.59524 2.5344 8.86782 2.40906 10.0955 2.65327C11.3233 2.89748 12.451 3.50027 13.3362 4.38542C14.2213 5.27056 14.8241 6.39831 15.0683 7.62604C15.3125 8.85377 15.1872 10.1264 14.7082 11.2829C14.2291 12.4393 13.4179 13.4278 12.3771 14.1233C11.3363 14.8187 10.1126 15.1899 8.8608 15.1899C7.18282 15.1879 5.57415 14.5205 4.38764 13.3339C3.20113 12.1474 2.53367 10.5388 2.53166 8.8608V8.8608Z" fill="white"/>
</svg>
