<svg width="15" height="11" viewBox="0 0 15 11" fill="none" xmlns="http://www.w3.org/2000/svg">
<path d="M4.3666 8.57137L1.42326 5.62803C1.3463 5.55012 1.25463 5.48827 1.15358 5.44606C1.05253 5.40384 0.944109 5.3821 0.834596 5.3821C0.725083 5.3821 0.616658 5.40384 0.515609 5.44606C0.414559 5.48827 0.322894 5.55012 0.245928 5.62803C0.168022 5.705 0.106169 5.79666 0.0639533 5.89771C0.0217378 5.99876 0 6.10718 0 6.2167C0 6.32621 0.0217378 6.43463 0.0639533 6.53568C0.106169 6.63673 0.168022 6.7284 0.245928 6.80537L3.76952 10.329C4.0975 10.6569 4.6273 10.6569 4.95527 10.329L13.8694 1.42326C13.9473 1.3463 14.0091 1.25463 14.0514 1.15358C14.0936 1.05253 14.1153 0.944109 14.1153 0.834595C14.1153 0.725082 14.0936 0.616658 14.0514 0.515609C14.0091 0.414559 13.9473 0.322894 13.8694 0.245928C13.7924 0.168022 13.7007 0.106169 13.5997 0.0639531C13.4986 0.0217376 13.3902 0 13.2807 0C13.1712 0 13.0628 0.0217376 12.9617 0.0639531C12.8607 0.106169 12.769 0.168022 12.692 0.245928L4.3666 8.57137Z" fill="#F73E42"/>
</svg>
