<svg width="12" height="10" viewBox="0 0 12 10" fill="none" xmlns="http://www.w3.org/2000/svg">
<path d="M0.75 5.71378H9.645L6.9225 8.82778C6.85947 8.9 6.81199 8.98334 6.78277 9.07303C6.75356 9.16273 6.74318 9.25702 6.75223 9.35054C6.77052 9.5394 6.86684 9.7136 7.02 9.83484C7.17316 9.95607 7.37062 10.0144 7.56894 9.99698C7.76726 9.97956 7.9502 9.88784 8.0775 9.74199L11.8275 5.45666C11.8527 5.42257 11.8753 5.38676 11.895 5.34952C11.895 5.31381 11.9325 5.29238 11.9475 5.25667C11.9815 5.17478 11.9993 5.08761 12 4.99955C11.9993 4.9115 11.9815 4.82433 11.9475 4.74243C11.9475 4.70672 11.91 4.6853 11.895 4.64958C11.8753 4.61235 11.8527 4.57654 11.8275 4.54245L8.0775 0.257121C8.00698 0.176498 7.91868 0.111661 7.81887 0.0672212C7.71905 0.0227816 7.61018 -0.000169036 7.5 1.36442e-06C7.32476 -0.000324687 7.15493 0.0577954 7.02 0.164272C6.94406 0.224231 6.88128 0.297867 6.83527 0.380965C6.78925 0.464063 6.7609 0.554989 6.75185 0.648535C6.74279 0.742082 6.7532 0.836411 6.78249 0.926119C6.81177 1.01583 6.85935 1.09915 6.9225 1.17132L9.645 4.28533H0.75C0.551088 4.28533 0.360322 4.36058 0.21967 4.49452C0.0790178 4.62847 0 4.81013 0 4.99955C0 5.18898 0.0790178 5.37064 0.21967 5.50458C0.360322 5.63853 0.551088 5.71378 0.75 5.71378Z" fill="#7F8C8D"/>
</svg>
