<svg width="100" height="99" viewBox="0 0 100 99" fill="none" xmlns="http://www.w3.org/2000/svg">
<path d="M61.1148 68.0285C60.877 68.0285 60.6393 68.0285 60.4015 67.7907L50.178 62.5576L39.9546 67.7907C39.2413 68.0285 38.5281 68.0285 38.0525 67.5528C37.577 67.0771 37.3393 66.3635 37.3393 65.8877L39.2413 54.7081L31.1576 46.6207C30.6821 46.1449 30.4444 45.4313 30.6821 44.7177C30.9199 44.0041 31.3954 43.5284 32.1087 43.5284L43.5209 41.8634L48.5138 31.6352C49.227 30.4458 51.1291 30.4458 51.6046 31.6352L56.5974 41.8634L68.0097 43.5284C68.7229 43.5284 69.1984 44.0041 69.4362 44.7177C69.674 45.4313 69.4362 46.1449 68.9607 46.6207L60.877 54.7081L62.7791 65.8877C62.7791 66.6013 62.5413 67.3149 62.0658 67.5528C61.828 67.7907 61.3525 68.0285 61.1148 68.0285ZM50.178 58.7518C50.4158 58.7518 50.6536 58.7518 50.8913 58.9896L58.7372 63.0334L57.3107 54.4702C57.3107 53.9945 57.3107 53.2809 57.7862 52.8052L63.9678 46.6207L55.4087 45.4313C54.9331 45.4313 54.2199 44.9556 53.9821 44.4799L50.178 36.6303L46.374 44.4799C46.1362 44.9556 45.6607 45.4313 44.9474 45.4313L36.3883 46.6207L42.5699 52.8052C43.0454 53.2809 43.2832 53.7566 43.0454 54.4702L41.6189 63.0334L49.4648 58.9896C49.4648 58.7518 49.7025 58.7518 50.178 58.7518Z" fill="#F73E42"/>
<path d="M50.1776 98.714C22.8358 98.714 0.724609 76.5926 0.724609 49.476C0.724609 22.3593 22.8358 0 50.1776 0C77.5195 0 99.6307 22.1215 99.6307 49.476C99.6307 76.8304 77.2817 98.714 50.1776 98.714ZM50.1776 3.56798C24.9756 3.56798 4.29093 24.0244 4.29093 49.476C4.29093 74.6897 24.7379 95.1461 50.1776 95.1461C75.6174 95.1461 95.8266 74.6897 95.8266 49.476C95.8266 24.0244 75.3797 3.56798 50.1776 3.56798Z" fill="#F73E42"/>
<path d="M50.1779 85.155C30.4442 85.155 14.5146 69.218 14.5146 49.4752C14.5146 29.7324 30.4442 13.7954 50.1779 13.7954C69.9116 13.7954 85.8412 29.7324 85.8412 49.4752C85.8412 68.9801 69.6738 85.155 50.1779 85.155ZM50.1779 17.1255C32.3463 17.1255 18.081 31.6353 18.081 49.2373C18.081 67.0772 32.584 81.3491 50.1779 81.3491C67.7718 81.3491 82.2748 66.8393 82.2748 49.2373C82.2748 31.6353 67.7718 17.1255 50.1779 17.1255Z" fill="#F73E42"/>
</svg>
