<svg width="12" height="13" viewBox="0 0 12 13" fill="none" xmlns="http://www.w3.org/2000/svg">
<g clip-path="url(#clip0)">
<path d="M10.0466 12.0232H1.95359C1.02987 12.0232 0.279175 11.2726 0.279175 10.3488V2.81395C0.279175 1.89022 1.02987 1.13953 1.95359 1.13953H10.0466C10.9703 1.13953 11.721 1.89022 11.721 2.81395V10.3488C11.721 11.2726 10.9703 12.0232 10.0466 12.0232Z" fill="#111111" stroke="#111111" stroke-width="0.55814" stroke-miterlimit="10"/>
<path d="M4.18628 3.79071C4.18628 4.32931 3.74814 4.76745 3.20953 4.76745C2.67093 4.76745 2.23279 4.32931 2.23279 3.79071C2.23279 3.2521 2.67093 2.81396 3.20953 2.81396C3.74814 2.81396 4.18628 3.2521 4.18628 3.79071Z" fill="white" stroke="white" stroke-width="0.55814" stroke-miterlimit="10"/>
<path d="M4.18628 9.37207C4.18628 9.91067 3.74814 10.3488 3.20953 10.3488C2.67093 10.3488 2.23279 9.91067 2.23279 9.37207C2.23279 8.83346 2.67093 8.39532 3.20953 8.39532C3.74814 8.39532 4.18628 8.83346 4.18628 9.37207Z" fill="white" stroke="white" stroke-width="0.55814" stroke-miterlimit="10"/>
<path d="M9.76733 3.79071C9.76733 4.32931 9.32919 4.76745 8.79059 4.76745C8.25198 4.76745 7.81384 4.32931 7.81384 3.79071C7.81384 3.2521 8.25198 2.81396 8.79059 2.81396C9.32919 2.81396 9.76733 3.2521 9.76733 3.79071Z" fill="white" stroke="white" stroke-width="0.55814" stroke-miterlimit="10"/>
<path d="M9.76733 9.37207C9.76733 9.91067 9.32919 10.3488 8.79059 10.3488C8.25198 10.3488 7.81384 9.91067 7.81384 9.37207C7.81384 8.83346 8.25198 8.39532 8.79059 8.39532C9.32919 8.39532 9.76733 8.83346 9.76733 9.37207Z" fill="white" stroke="white" stroke-width="0.55814" stroke-miterlimit="10"/>
<path d="M6.97693 6.58136C6.97693 7.11996 6.53879 7.5581 6.00018 7.5581C5.46158 7.5581 5.02344 7.11996 5.02344 6.58136C5.02344 6.04275 5.46158 5.60461 6.00018 5.60461C6.53879 5.60461 6.97693 6.04275 6.97693 6.58136Z" fill="white" stroke="white" stroke-width="0.55814" stroke-miterlimit="10"/>
</g>
<defs>
<clipPath id="clip0">
<rect width="12" height="11.4419" fill="white" transform="translate(0 0.860474)"/>
</clipPath>
</defs>
</svg>
