<svg width="222" height="221" viewBox="0 0 222 221" fill="none" xmlns="http://www.w3.org/2000/svg">
<g clip-path="url(#clip0)">
<path d="M105.721 138.406V131.055C101.505 130.975 97.1688 129.666 94.6191 127.854L96.3657 122.98C98.9756 124.732 102.75 126.102 106.805 126.102C111.945 126.102 115.438 123.121 115.438 118.973C115.438 114.966 112.607 112.489 107.247 110.314C99.8389 107.394 95.2816 104.051 95.2816 97.7277C95.2816 91.6865 99.5578 87.0951 106.243 86.0076V78.6574H110.74V85.7056C115.097 85.8466 118.068 87.0145 120.176 88.2429L118.369 93.0558C116.843 92.1899 113.872 90.5789 109.234 90.5789C103.653 90.5789 101.545 93.9217 101.545 96.8417C101.545 100.628 104.236 102.52 110.539 105.138C118.008 108.199 121.782 111.985 121.782 118.449C121.782 124.189 117.787 129.585 110.319 130.814V138.386H105.721V138.406Z" fill="#F73E42"/>
<path d="M139.048 7.71333L132.002 28.8578C130.295 33.9526 159.466 49.6801 162.778 45.4512L176.269 28.1127" stroke="#F73E42" stroke-width="6.38108" stroke-miterlimit="10" stroke-linecap="round" stroke-linejoin="round"/>
<path d="M39.3887 28.7362L53.9437 45.6316C57.3165 49.8203 86.1857 33.5692 84.4191 28.4946L77.0713 7.75282" stroke="#F73E42" stroke-width="6.38108" stroke-miterlimit="10" stroke-linecap="round" stroke-linejoin="round"/>
<path d="M4.95898 128.437L19.3133 126.04L26.8819 124.772C32.1619 123.886 32.3627 90.6788 27.0626 89.7323L5.48096 85.9062" stroke="#F73E42" stroke-width="6.38108" stroke-miterlimit="10" stroke-linecap="round" stroke-linejoin="round"/>
<path d="M74.2204 208.323L81.9296 187.42C83.7967 182.386 55.1483 165.752 51.6952 169.881L37.6621 186.776" stroke="#F73E42" stroke-width="6.38108" stroke-miterlimit="10" stroke-linecap="round" stroke-linejoin="round"/>
<path d="M112.465 22.1301C112.465 24.4862 110.558 26.4194 108.189 26.4194C105.84 26.4194 103.913 24.5063 103.913 22.1301C103.913 19.774 105.82 17.8408 108.189 17.8408C110.558 17.8408 112.465 19.774 112.465 22.1301Z" fill="#F73E42"/>
<path d="M185.182 69.5547C183.135 70.7227 180.525 69.9977 179.36 67.9437C178.196 65.8897 178.919 63.2718 180.966 62.1038C183.014 60.9358 185.624 61.6608 186.788 63.7148C187.953 65.7688 187.23 68.3867 185.182 69.5547Z" fill="#F73E42"/>
<path d="M103.935 194.911C103.935 192.555 105.842 190.622 108.211 190.622C110.56 190.622 112.487 192.535 112.487 194.911C112.487 197.268 110.58 199.201 108.211 199.201C105.842 199.201 103.935 197.288 103.935 194.911Z" fill="#F73E42"/>
<path d="M31.7791 148.635C33.8068 147.427 36.4367 148.111 37.6212 150.165C38.8258 152.199 38.1432 154.837 36.0954 156.025C34.0678 157.234 31.4378 156.549 30.2533 154.495C29.0689 152.461 29.7514 149.823 31.7791 148.635Z" fill="#F73E42"/>
<path d="M112.466 213.942C100.942 214.406 89.1176 212.976 77.4535 209.391C21.9234 192.375 -9.33493 133.412 7.62926 77.7116C24.5934 21.9909 83.3759 -9.36334 138.926 7.65293C185.703 21.9909 215.255 66.0721 213.287 112.912" stroke="#F73E42" stroke-width="6.38108" stroke-miterlimit="10" stroke-linecap="round" stroke-linejoin="round"/>
<path d="M35.2763 62.3659C37.324 63.5339 38.0467 66.1316 36.9024 68.2058C35.738 70.2598 33.1482 70.9848 31.0804 69.837C29.0126 68.6891 28.3099 66.0712 29.4542 63.9971C30.6186 61.9229 33.2285 61.1979 35.2763 62.3659Z" fill="#F73E42"/>
<path d="M97.6113 169.88V156.609" stroke="#F73E42" stroke-width="6.38108" stroke-miterlimit="10" stroke-linecap="round" stroke-linejoin="round"/>
<path d="M97.6113 59.6675V47.7058" stroke="#F73E42" stroke-width="6.38108" stroke-miterlimit="10" stroke-linecap="round" stroke-linejoin="round"/>
<path d="M115.639 60.3119V47.7058" stroke="#F73E42" stroke-width="6.38108" stroke-miterlimit="10" stroke-linecap="round" stroke-linejoin="round"/>
<path d="M169.421 98.5134H155.448" stroke="#F73E42" stroke-width="6.38108" stroke-miterlimit="10" stroke-linecap="round" stroke-linejoin="round"/>
<path d="M112.887 170.725C88.7151 172.517 64.6641 159.992 52.8996 137.055C37.2203 106.466 49.2859 68.7886 79.7813 53.0813C110.277 37.3538 147.839 49.4565 163.498 80.0254C168.899 90.5373 171.006 101.895 170.203 112.91" stroke="#F73E42" stroke-width="6.38108" stroke-miterlimit="10" stroke-linecap="round" stroke-linejoin="round"/>
<path d="M47.3398 98.5134H60.2688" stroke="#F73E42" stroke-width="6.38108" stroke-miterlimit="10" stroke-linecap="round" stroke-linejoin="round"/>
<path d="M46.5557 117.078H60.2675" stroke="#F73E42" stroke-width="6.38108" stroke-miterlimit="10" stroke-linecap="round" stroke-linejoin="round"/>
<path d="M169.424 122.719L184.742 153.852L218.992 158.846L194.218 183.071L200.06 217.285L169.424 201.135L138.788 217.285L144.65 183.071L119.856 158.846L154.106 153.852L169.424 122.719Z" stroke="#F73E42" stroke-width="6.38108" stroke-miterlimit="10" stroke-linecap="round" stroke-linejoin="round"/>
<path d="M213.33 111.825C213.33 111.825 211.403 132.325 205.621 145.455" stroke="#EEEEEE" stroke-width="6.38108" stroke-miterlimit="10" stroke-linecap="round" stroke-linejoin="round"/>
</g>
<defs>
<clipPath id="clip0">
<rect width="222" height="220.305" fill="white"/>
</clipPath>
</defs>
</svg>
