<svg width="15" height="24" viewBox="0 0 15 24" fill="none" xmlns="http://www.w3.org/2000/svg">
<path d="M1.50162 19.5751L9.31487 11.7619L1.50162 3.94864C1.31519 3.76221 1.1673 3.54088 1.0664 3.29729C0.965507 3.0537 0.913574 2.79262 0.913574 2.52896C0.913574 2.26531 0.965507 2.00423 1.0664 1.76064C1.1673 1.51705 1.31519 1.29572 1.50162 1.10929C1.68806 0.922855 1.90939 0.774967 2.15298 0.67407C2.39656 0.573172 2.65764 0.52124 2.9213 0.52124C3.18496 0.52124 3.44603 0.573172 3.68962 0.67407C3.93321 0.774967 4.15454 0.922855 4.34097 1.10929L13.584 10.3523C14.3693 11.1376 14.3693 12.4063 13.584 13.1916L4.34097 22.4346C4.15468 22.6213 3.93339 22.7694 3.68978 22.8705C3.44618 22.9715 3.18503 23.0235 2.9213 23.0235C2.65756 23.0235 2.39642 22.9715 2.15281 22.8705C1.90921 22.7694 1.68792 22.6213 1.50162 22.4346C0.736408 21.6493 0.716271 20.3605 1.50162 19.5751Z" fill="#333333"/>
</svg>
