<svg width="14" height="24" viewBox="0 0 14 24" fill="none" xmlns="http://www.w3.org/2000/svg">
<path d="M12.786 19.5751L4.97272 11.7619L12.786 3.94864C12.9724 3.76221 13.1203 3.54088 13.2212 3.29729C13.3221 3.0537 13.374 2.79262 13.374 2.52896C13.374 2.26531 13.3221 2.00423 13.2212 1.76064C13.1203 1.51705 12.9724 1.29572 12.786 1.10929C12.5995 0.922855 12.3782 0.774967 12.1346 0.67407C11.891 0.573172 11.63 0.52124 11.3663 0.52124C11.1026 0.52124 10.8416 0.573172 10.598 0.67407C10.3544 0.774967 10.1331 0.922855 9.94662 1.10929L0.703629 10.3523C-0.0817232 11.1376 -0.0817232 12.4063 0.703629 13.1916L9.94662 22.4346C10.1329 22.6213 10.3542 22.7694 10.5978 22.8705C10.8414 22.9715 11.1026 23.0235 11.3663 23.0235C11.63 23.0235 11.8912 22.9715 12.1348 22.8705C12.3784 22.7694 12.5997 22.6213 12.786 22.4346C13.5512 21.6493 13.5713 20.3605 12.786 19.5751Z" fill="#333333"/>
</svg>
